<svg width="40" height="40" viewBox="0 0 40 40" fill="none" xmlns="http://www.w3.org/2000/svg">
<path d="M27.3594 27.3373V6.82437C27.3594 5.64878 26.7071 5 25.5247 5H21.4878C20.3053 5 19.6528 5.64878 19.6528 6.82437V16.5661C19.6528 16.8405 22.3116 18.1143 22.3811 18.3838C24.4068 26.2529 22.8212 32.5507 20.9009 32.8452C24.0407 32.9995 24.3862 34.5005 22.0475 33.4749C22.4052 29.2762 23.8012 29.2844 27.8146 33.3204C27.849 33.3553 28.6376 34.9997 28.6867 34.9997H38.1653C39.3478 34.9997 40 34.3514 40 33.1756V29.162C40 27.9864 39.3478 27.3376 38.1653 27.3376L27.3594 27.3373Z" fill="#02A9FF"/>
<path d="M10.6018 5.00037L0 35H8.23688L10.031 29.8108H19.0016L20.7552 35H28.9511L18.39 5.00037H10.6018ZM11.9066 23.1628L14.4753 14.852L17.2889 23.1628H11.9066Z" fill="#FEFEFE"/>
</svg>
