<svg width="40" height="40" viewBox="0 0 40 40" fill="none" xmlns="http://www.w3.org/2000/svg">
<path fill-rule="evenodd" clip-rule="evenodd" d="M20.5128 5C11.9346 5 5 11.875 5 20.3802C5 27.179 9.44326 32.9339 15.6072 34.9708C16.3779 35.1239 16.6602 34.6399 16.6602 34.2327C16.6602 33.8761 16.6348 32.6539 16.6348 31.3805C12.3195 32.2974 11.4209 29.5471 11.4209 29.5471C10.7274 27.7646 9.69983 27.3065 9.69983 27.3065C8.28743 26.3643 9.80271 26.3643 9.80271 26.3643C11.3694 26.4662 12.1915 27.943 12.1915 27.943C13.5782 30.2855 15.8127 29.6236 16.7116 29.2161C16.8399 28.223 17.2511 27.5355 17.6877 27.1537C14.246 26.7971 10.6248 25.473 10.6248 19.5653C10.6248 17.8846 11.2408 16.5096 12.2169 15.4403C12.0629 15.0584 11.5234 13.4793 12.3712 11.3659C12.3712 11.3659 13.6811 10.9584 16.6345 12.9447C17.8989 12.608 19.2029 12.4367 20.5128 12.4353C21.8227 12.4353 23.1579 12.6137 24.3909 12.9447C27.3446 10.9584 28.6544 11.3659 28.6544 11.3659C29.5022 13.4793 28.9624 15.0584 28.8084 15.4403C29.8102 16.5096 30.4008 17.8846 30.4008 19.5653C30.4008 25.473 26.7797 26.7715 23.3122 27.1537C23.8774 27.6374 24.3652 28.554 24.3652 30.0055C24.3652 32.068 24.3397 33.7233 24.3397 34.2324C24.3397 34.6399 24.6224 35.1239 25.3927 34.9711C31.5567 32.9336 35.9999 27.179 35.9999 20.3802C36.0253 11.875 29.0653 5 20.5128 5Z" fill="white"/>
</svg>
