<svg width="40" height="40" viewBox="0 0 40 40" fill="none" xmlns="http://www.w3.org/2000/svg">
<path d="M2.72725 35H9.09084V19.5494L0 12.7329V32.2734C0 33.7821 1.22272 35 2.72725 35Z" fill="#4285F4"/>
<path d="M30.9092 35H37.2727C38.7818 35 40 33.7776 40 32.2734V12.7329L30.9092 19.5494" fill="#34A853"/>
<path d="M30.9092 7.73432V19.5494L40 12.7329V9.09761C40 5.72574 36.15 3.80349 33.4546 5.82571" fill="#FBBC04"/>
<path d="M9.09084 19.5494V7.73413L19.9999 15.9139L30.9092 7.73432V19.5494L19.9999 27.7291" fill="#EA4335"/>
<path d="M0 9.09761V12.7329L9.09084 19.5494V7.73413L6.54541 5.82571C3.84543 3.80349 0 5.72574 0 9.09761Z" fill="#C5221F"/>
</svg>
