<svg width="40" height="40" viewBox="0 0 40 40" fill="none" xmlns="http://www.w3.org/2000/svg">
<path d="M19.6091 19.3288L7.11179 32.5135C7.25212 33.0143 7.50431 33.4762 7.84908 33.8639C8.19385 34.2515 8.62208 34.5547 9.10103 34.7501C9.57998 34.9456 10.097 35.0281 10.6125 34.9916C11.128 34.955 11.6283 34.8002 12.0753 34.539L26.1372 26.4744L19.6091 19.3288Z" fill="#EA4335"/>
<path d="M32.2461 17.0876L26.1651 13.5804L19.3204 19.6288L26.193 26.4556L32.2275 22.986C32.7621 22.7041 33.2099 22.2803 33.5224 21.7604C33.8348 21.2405 34 20.6444 34 20.0368C34 19.4291 33.8348 18.833 33.5224 18.3131C33.2099 17.7933 32.7621 17.3694 32.2275 17.0876H32.2461Z" fill="#FBBC04"/>
<path d="M7.11179 7.49441C7.03624 7.77563 6.99865 8.06581 7.00004 8.35714V31.6508C7.00079 31.9419 7.03834 32.2318 7.11179 32.5135L20.0375 19.6664L7.11179 7.49441Z" fill="#4285F4"/>
<path d="M19.7022 20.004L26.1651 13.5804L12.1219 5.47826C11.5936 5.16668 10.9927 5.00166 10.3805 5.00001C9.64104 4.99853 8.92141 5.24056 8.33128 5.68921C7.74115 6.13786 7.31289 6.76851 7.11179 7.48503L19.7022 20.004Z" fill="#34A853"/>
</svg>
