<svg width="70" height="29" viewBox="0 0 70 29" fill="none" xmlns="http://www.w3.org/2000/svg">
<path fill-rule="evenodd" clip-rule="evenodd" d="M9.97054 27.5711C6.39333 28.3721 -1.13158 29.0825 0.143931 23.1138C2.91481 14.9015 30.0433 11.901 23.7071 20.0363C21.3718 23.0345 14.2238 26.3125 10.6149 27.3804L9.97054 27.5711Z" fill="#555555" fill-opacity="0.48"/>
<path fill-rule="evenodd" clip-rule="evenodd" d="M1.516 25.9396C-2.26339 18.8417 14.2676 16.5106 18.678 17.0128C25.7422 17.8172 16.7743 23.3325 14.6436 24.4376C11.1459 26.2511 5.95229 28.5247 2.18187 26.5044L1.516 25.9396Z" fill="#666666" fill-opacity="0.6"/>
<path fill-rule="evenodd" clip-rule="evenodd" d="M8.54438 25.5944C-1.99472 28.6446 0.241774 18.1799 14.1785 18.8463C21.7535 19.2085 11.3734 24.7057 9.27118 25.366L8.54438 25.5944Z" fill="#868686"/>
<path fill-rule="evenodd" clip-rule="evenodd" d="M3.95822 24.8325C1.02839 22.1133 10.0131 19.3174 12.0741 21.052C14.0426 22.7083 6.37964 25.4436 4.60375 25.0606L3.95822 24.8325Z" fill="#DBDEDE"/>
<path fill-rule="evenodd" clip-rule="evenodd" d="M69.1149 -6.48499e-05L38.0211 11.8974L6.79617 23.4399L6.66521 23.0852L6.48633 22.6012L37.7589 11.1878L69.1149 -6.48499e-05Z" fill="#DBDEDE"/>
<path fill-rule="evenodd" clip-rule="evenodd" d="M6.60182 22.1742C9.23157 21.2 9.66526 23.6407 6.62485 23.8817C4.43751 24.0547 4.81376 23.0403 6.60182 22.1742Z" fill="white"/>
</svg>
