<svg width="39" height="16" viewBox="0 0 39 16" fill="none" xmlns="http://www.w3.org/2000/svg">
<path fill-rule="evenodd" clip-rule="evenodd" d="M5.49737 15.2008C3.52503 15.6424 -0.623908 16.0341 0.0793579 12.7432C1.60711 8.21523 16.5647 6.56087 13.0712 11.0464C11.7836 12.6995 7.84245 14.5068 5.85262 15.0956L5.49737 15.2008Z" fill="#555555" fill-opacity="0.48"/>
<path fill-rule="evenodd" clip-rule="evenodd" d="M0.837388 14.301C-1.24642 10.3875 7.86811 9.10223 10.2999 9.37915C14.1948 9.82263 9.25021 12.8636 8.07542 13.4729C6.14694 14.4728 3.28339 15.7263 1.20452 14.6124L0.837388 14.301Z" fill="#666666" fill-opacity="0.6"/>
<path fill-rule="evenodd" clip-rule="evenodd" d="M4.70776 14.1116C-1.1031 15.7934 0.130021 10.0236 7.81421 10.391C11.9908 10.5907 6.26755 13.6217 5.10848 13.9857L4.70776 14.1116Z" fill="#868686"/>
<path fill-rule="evenodd" clip-rule="evenodd" d="M2.18306 13.6911C0.567668 12.1918 5.52149 10.6503 6.65783 11.6067C7.74322 12.5199 3.51814 14.028 2.53898 13.8169L2.18306 13.6911Z" fill="#DBDEDE"/>
<path fill-rule="evenodd" clip-rule="evenodd" d="M38.1105 -7.82013e-05L20.9666 6.55969L3.75042 12.9238L3.67822 12.7283L3.57959 12.4614L20.8221 6.16849L38.1105 -7.82013e-05Z" fill="#DBDEDE"/>
<path fill-rule="evenodd" clip-rule="evenodd" d="M3.63656 12.2263C5.0865 11.6892 5.32562 13.0349 3.64926 13.1677C2.44324 13.2631 2.65069 12.7038 3.63656 12.2263Z" fill="white"/>
</svg>
