<svg width="25" height="10" viewBox="0 0 25 10" fill="none" xmlns="http://www.w3.org/2000/svg">
<path fill-rule="evenodd" clip-rule="evenodd" d="M3.47761 9.61582C2.22992 9.89519 -0.394681 10.143 0.0502015 8.06116C1.01665 5.19681 10.4787 4.15027 8.26877 6.98777C7.45424 8.03352 4.9611 9.17682 3.70234 9.54932L3.47761 9.61582Z" fill="#555555" fill-opacity="0.48"/>
<path fill-rule="evenodd" clip-rule="evenodd" d="M0.529729 9.04795C-0.788479 6.57228 4.97734 5.75921 6.51565 5.93439C8.97955 6.21492 5.85164 8.13862 5.10848 8.52405C3.88853 9.15657 2.07706 9.94957 0.761978 9.24493L0.529729 9.04795Z" fill="#666666" fill-opacity="0.6"/>
<path fill-rule="evenodd" clip-rule="evenodd" d="M2.9781 8.92672C-0.697822 9.99059 0.0822423 6.34061 4.94323 6.57305C7.58531 6.69937 3.96482 8.61676 3.2316 8.84705L2.9781 8.92672Z" fill="#868686"/>
<path fill-rule="evenodd" clip-rule="evenodd" d="M1.38162 8.66117C0.359729 7.71276 3.4935 6.73758 4.21234 7.3426C4.89896 7.9203 2.22618 8.87432 1.60677 8.74075L1.38162 8.66117Z" fill="#DBDEDE"/>
<path fill-rule="evenodd" clip-rule="evenodd" d="M24.1102 -6.86646e-05L13.2651 4.14961L2.37418 8.17554L2.32851 8.05182L2.26611 7.883L13.1736 3.90214L24.1102 -6.86646e-05Z" fill="#DBDEDE"/>
<path fill-rule="evenodd" clip-rule="evenodd" d="M2.30066 7.73556C3.21789 7.39576 3.36916 8.24704 2.3087 8.33111C1.54577 8.39144 1.67701 8.03763 2.30066 7.73556Z" fill="white"/>
</svg>
