<svg width="74" height="64" viewBox="0 0 74 64" fill="none" xmlns="http://www.w3.org/2000/svg">
<g filter="url(#filter0_f_2018_5321)">
<path d="M37.0056 11.7119C36.4779 11.7119 35.9549 11.7413 35.4408 11.7937C35.2138 11.8169 34.9897 11.8426 34.7658 11.8756C34.7354 11.88 34.7041 11.8811 34.6737 11.8858C34.5432 11.9058 34.4145 11.9341 34.2851 11.9574C33.9142 12.024 33.5417 12.0997 33.1806 12.1926C32.9639 12.2483 32.7491 12.3118 32.5362 12.3767C32.5124 12.384 32.4886 12.3897 32.4647 12.3971C32.2973 12.4491 32.1386 12.5033 31.9737 12.5608C31.8992 12.5868 31.8228 12.6155 31.7487 12.6426C31.5575 12.7127 31.3636 12.7799 31.176 12.8574C31.0868 12.8942 30.9985 12.9314 30.9101 12.9699C30.8035 13.0163 30.6984 13.0643 30.5931 13.1131C30.4889 13.1613 30.3891 13.216 30.2862 13.2665C30.2356 13.2913 30.1832 13.3127 30.1328 13.3381C29.9794 13.4154 29.8332 13.5012 29.6828 13.5835C29.5005 13.6833 29.3186 13.7834 29.1408 13.8903C29.022 13.9618 28.8995 14.0305 28.7828 14.1051C28.7004 14.1578 28.6188 14.2145 28.5374 14.2687C28.4372 14.3355 28.3393 14.4042 28.2408 14.4733C28.1631 14.5277 28.0924 14.5913 28.0158 14.6471C27.9857 14.669 27.9536 14.6864 27.9237 14.7085C27.9038 14.7232 27.8821 14.7347 27.8624 14.7494C27.8101 14.7885 27.7608 14.8324 27.709 14.8721C27.6469 14.9198 27.5862 14.9667 27.5249 15.0153C27.3955 15.1178 27.2621 15.2156 27.1362 15.3221C27.1326 15.3253 27.1297 15.3293 27.1261 15.3324C26.9913 15.4467 26.8581 15.5612 26.7273 15.6801C26.5515 15.8398 26.3841 16.0033 26.2159 16.171C26.209 16.1778 26.2022 16.1847 26.1956 16.1915C26.1681 16.2189 26.141 16.2457 26.1138 16.2733C26.1086 16.2801 26.1086 16.287 26.1036 16.2937C26.0801 16.3179 26.0556 16.341 26.0321 16.3653C26.0219 16.3757 26.0114 16.3856 26.0013 16.396C25.9682 16.4304 25.9318 16.4636 25.899 16.4983C25.8938 16.5058 25.8935 16.5116 25.8889 16.5187C25.8791 16.5293 25.8683 16.5388 25.8581 16.5494C25.8352 16.5739 25.8093 16.5964 25.7866 16.621C25.7833 16.6246 25.7797 16.6277 25.7764 16.6312C25.7489 16.6611 25.7219 16.6932 25.6946 16.7233C25.6027 16.8246 25.5077 16.9263 25.4185 17.0301C25.4041 17.0467 25.3916 17.0646 25.3776 17.0812C25.3255 17.1422 25.2752 17.2036 25.2241 17.2653C25.2055 17.2879 25.1914 17.3142 25.173 17.3369C25.158 17.3555 25.137 17.3694 25.1219 17.3881C25.1081 17.405 25.0947 17.4222 25.081 17.4392C25.0479 17.4804 25.0114 17.5204 24.9787 17.5619C24.9741 17.5678 24.9731 17.5765 24.9685 17.5824C24.961 17.5921 24.9558 17.6033 24.9482 17.6131C24.9394 17.6244 24.9263 17.6324 24.9175 17.6437C24.9011 17.6648 24.8826 17.6839 24.8663 17.7051C24.8513 17.7245 24.8402 17.7469 24.8254 17.7665C24.7578 17.8556 24.6866 17.9417 24.6209 18.0324C24.6049 18.0546 24.596 18.0817 24.58 18.104C24.5767 18.1078 24.5725 18.1103 24.5698 18.1142C24.5666 18.118 24.5623 18.1206 24.5597 18.1244C24.5509 18.1367 24.5479 18.153 24.5394 18.1653C24.5266 18.1832 24.5109 18.1986 24.4985 18.2165C24.4844 18.2364 24.4717 18.2578 24.4576 18.2778C24.4353 18.3096 24.4079 18.3379 24.386 18.3699C24.3817 18.3761 24.3801 18.3841 24.3758 18.3903C24.3647 18.4068 24.3562 18.4249 24.3451 18.4415C24.3418 18.4454 24.3375 18.4478 24.3349 18.4517C24.3254 18.4658 24.3137 18.4785 24.3042 18.4926C24.2878 18.5168 24.2691 18.5399 24.253 18.5642C24.2419 18.581 24.2334 18.5985 24.2223 18.6153C24.2154 18.6256 24.2085 18.6357 24.202 18.646V18.6562C24.1575 18.7244 24.1125 18.7918 24.0691 18.8608C24.0648 18.8673 24.0628 18.8747 24.0589 18.8812C24.0556 18.8853 24.0511 18.8874 24.0488 18.8915C24.0455 18.8955 24.0409 18.8977 24.0386 18.9017C24.0213 18.9294 24.0045 18.9557 23.9875 18.9835V18.9937C23.9809 19.0043 23.9734 19.0138 23.9672 19.0244C23.9639 19.0285 23.9593 19.0306 23.957 19.0346C23.9505 19.0452 23.943 19.0547 23.9368 19.0653C23.9329 19.0719 23.9306 19.0792 23.9266 19.0858C23.9204 19.0962 23.9126 19.106 23.9063 19.1165C23.8962 19.1334 23.8857 19.1506 23.8756 19.1676C23.8703 19.1767 23.8707 19.1891 23.8654 19.1983C23.8491 19.226 23.8306 19.2523 23.8143 19.2801C23.811 19.2841 23.8064 19.2863 23.8041 19.2903C23.8002 19.2969 23.7976 19.3042 23.794 19.3108C23.7645 19.3611 23.7409 19.4135 23.7121 19.4642C23.6807 19.5197 23.6407 19.5719 23.6099 19.6278V19.6381C23.5987 19.6582 23.5902 19.6792 23.5791 19.6994C23.5585 19.7371 23.5379 19.7741 23.5177 19.8119C23.4919 19.8605 23.4614 19.9062 23.4359 19.9551C23.4238 19.9783 23.4173 20.0034 23.4052 20.0267C23.4016 20.0335 23.3983 20.0403 23.395 20.0471C23.3917 20.0514 23.3868 20.0532 23.3849 20.0574C23.3639 20.0983 23.344 20.139 23.3235 20.1801C23.3134 20.2006 23.3029 20.2209 23.2927 20.2415C23.2826 20.2619 23.2721 20.2823 23.262 20.3028C23.2518 20.3235 23.2414 20.3434 23.2312 20.3642C23.2214 20.3846 23.2103 20.4051 23.2005 20.4256C23.1946 20.4382 23.1962 20.4538 23.1903 20.4665C23.187 20.4733 23.1831 20.4801 23.1802 20.4869C23.1769 20.4911 23.172 20.4929 23.17 20.4971V20.5074C23.1635 20.521 23.1559 20.5346 23.1497 20.5483C23.1183 20.6155 23.0881 20.6851 23.0577 20.7528C23.0299 20.8145 23.0028 20.8748 22.9759 20.9369C22.9624 20.9681 22.9484 20.9977 22.935 21.029C22.9317 21.0359 22.9278 21.0425 22.9248 21.0494C22.9215 21.0565 22.9176 21.0628 22.9147 21.0699C22.9104 21.0797 22.9084 21.0907 22.9045 21.1006C22.9003 21.1104 22.8983 21.1214 22.8944 21.1312C22.8845 21.1551 22.8734 21.1789 22.8636 21.2028C22.8466 21.2442 22.8291 21.284 22.8125 21.3256C22.7824 21.4008 22.7493 21.4747 22.7204 21.5506C22.7129 21.5705 22.7073 21.5919 22.7001 21.6119C22.7001 21.6161 22.6913 21.618 22.69 21.6221C22.6864 21.632 22.6834 21.6429 22.6798 21.6528C22.6759 21.663 22.6733 21.6734 22.6697 21.6835C22.6622 21.7037 22.6566 21.7247 22.6494 21.7449C22.6295 21.7993 22.6074 21.8538 22.5881 21.9085V21.9187C22.5763 21.9521 22.5687 21.9875 22.5573 22.021C22.5537 22.0312 22.5504 22.0415 22.5472 22.0517C22.5439 22.0588 22.5393 22.065 22.537 22.0721V22.0824C22.537 22.0864 22.5282 22.0885 22.5269 22.0926C22.5164 22.1233 22.5066 22.1538 22.4961 22.1846C22.4892 22.2053 22.4823 22.2253 22.4758 22.246C22.4715 22.2593 22.4699 22.2736 22.4657 22.2869C22.4532 22.325 22.4369 22.3612 22.4247 22.3994C22.4195 22.416 22.4198 22.4339 22.4146 22.4506C22.4081 22.471 22.4005 22.4914 22.3943 22.5119V22.5221C22.391 22.5294 22.3861 22.5354 22.3842 22.5426C22.3756 22.5707 22.3619 22.5962 22.3534 22.6244C22.3442 22.6546 22.3416 22.6862 22.3331 22.7165C22.3043 22.8152 22.2781 22.9135 22.2513 23.0131C22.248 23.0234 22.2438 23.0334 22.2411 23.0437C22.2339 23.0713 22.2277 23.0979 22.2208 23.1256C22.2127 23.1567 22.1979 23.1864 22.1901 23.2176C22.1858 23.2345 22.1842 23.2518 22.1799 23.2687C22.1645 23.3296 22.1534 23.3917 22.139 23.4528C22.1312 23.4866 22.1263 23.5212 22.1187 23.5551C22.1037 23.6202 22.0817 23.684 22.0676 23.7494V23.7596C22.0644 23.77 22.0598 23.7799 22.0575 23.7903C22.0539 23.8073 22.0509 23.8244 22.0473 23.8415C22.0424 23.8649 22.0418 23.8896 22.0372 23.9131C22.029 23.9535 22.0247 23.9952 22.0169 24.0358V24.046C22.0136 24.0565 22.0087 24.0662 22.0067 24.0767C22.0022 24.1004 22.0009 24.1245 21.9966 24.1483V24.1585C21.9704 24.2986 21.9373 24.4364 21.9148 24.5778V24.588C21.9109 24.6119 21.9082 24.6357 21.9046 24.6596V24.6699C21.8873 24.7836 21.8684 24.8928 21.8535 25.0073V25.0176V25.0278C21.8368 25.1566 21.8157 25.2866 21.8024 25.4164V25.4369C21.7952 25.5078 21.7883 25.5804 21.7821 25.6517V25.6721C21.7445 26.1092 21.7207 26.5446 21.7207 26.9914C21.7207 29.9584 22.5788 32.7269 24.0423 35.0711C24.0479 35.08 24.0469 35.093 24.0524 35.1018C24.059 35.112 24.0665 35.1223 24.0727 35.1325C24.1334 35.2283 24.1941 35.3245 24.2568 35.4189C24.3261 35.5236 24.3998 35.6228 24.4716 35.7257C24.4748 35.7296 24.4791 35.732 24.4817 35.7359C24.485 35.7384 24.4784 35.7436 24.4817 35.7461C24.4932 35.7624 24.501 35.781 24.5125 35.7973C25.1619 36.7173 25.91 37.5585 26.742 38.3132C26.7972 38.3636 26.8496 38.4172 26.9057 38.4666C26.9024 38.4642 26.9089 38.4588 26.9057 38.4564C26.9637 38.5076 27.0207 38.5594 27.0796 38.6098C27.0832 38.6119 27.0861 38.6179 27.0897 38.62C27.1155 38.6421 27.1454 38.6594 27.1715 38.6814C27.179 38.6876 27.1846 38.6956 27.1918 38.7018C27.2491 38.7499 27.3076 38.7977 27.3657 38.845C27.3824 38.8586 27.4 38.8723 27.4168 38.8859C27.4263 38.8935 27.438 38.8988 27.4475 38.9064C27.4701 38.9245 27.4862 38.9497 27.5089 38.9677C27.5151 38.972 27.523 38.9736 27.5292 38.9779C27.5462 38.9915 27.5632 39.0054 27.5803 39.0189C27.6685 39.088 27.7566 39.1561 27.8462 39.2234C27.8538 39.2291 27.859 39.2382 27.8665 39.2439C27.8764 39.2512 27.8875 39.257 27.8973 39.2643C27.9071 39.2717 27.9179 39.2774 27.9281 39.2848C27.9418 39.2949 27.9552 39.3054 27.969 39.3154C27.9729 39.3183 27.9752 39.3228 27.9791 39.3257C28.1135 39.4243 28.2505 39.5178 28.3882 39.612C28.4252 39.6373 28.4635 39.6587 28.5007 39.6836C28.5249 39.6999 28.548 39.7187 28.5723 39.7348C28.7415 39.8471 28.9098 39.9564 29.0837 40.062C29.182 40.1218 29.2805 40.1783 29.3802 40.2359C29.443 40.2721 29.5112 40.3028 29.5746 40.3382C29.6331 40.3708 29.6894 40.4085 29.7484 40.4404C29.806 40.4716 29.8643 40.5021 29.9223 40.5325C29.9599 40.5522 29.997 40.5744 30.0348 40.5939C30.1232 40.6393 30.2113 40.6831 30.3007 40.7268C30.3282 40.7403 30.3548 40.7544 30.3825 40.7677C30.3858 40.7691 30.39 40.7664 30.3926 40.7677C30.4132 40.7776 30.4333 40.7886 30.454 40.7984C30.4609 40.8017 30.4674 40.8054 30.4743 40.8086C30.4776 40.81 30.4818 40.8073 30.4844 40.8086C30.5067 40.8191 30.5237 40.8392 30.5458 40.8495C30.5491 40.8508 30.5533 40.8482 30.5559 40.8495C30.6002 40.8702 30.6444 40.8907 30.6889 40.9109C30.6922 40.9122 30.6964 40.9096 30.6991 40.9109C30.7059 40.914 30.7125 40.918 30.7193 40.9211C30.7262 40.9243 30.7328 40.9282 30.7396 40.9314C30.7465 40.9345 30.753 40.9385 30.7599 40.9416C30.8562 40.9847 30.9489 41.0333 31.0463 41.0745C31.0495 41.0757 31.0535 41.0733 31.0564 41.0745C31.0633 41.0775 31.0698 41.0818 31.0767 41.0848C31.1273 41.106 31.1793 41.1254 31.2301 41.1461C31.2573 41.1572 31.2848 41.1659 31.312 41.1768C31.3942 41.2099 31.4745 41.2474 31.5574 41.2791C31.652 41.3151 31.7483 41.3471 31.8438 41.3814C31.9265 41.4111 32.0059 41.4451 32.0892 41.4734C32.0925 41.4744 32.0964 41.4724 32.0994 41.4734C32.2208 41.5146 32.3448 41.5477 32.4676 41.5859C32.5088 41.5987 32.5489 41.6143 32.5903 41.6268C32.6586 41.6474 32.7262 41.6685 32.7948 41.6882C32.9015 41.7187 33.0042 41.752 33.1119 41.7802C33.1152 41.7811 33.1188 41.7794 33.122 41.7802C33.143 41.7857 33.1623 41.7952 33.1834 41.8007C33.2675 41.8223 33.3544 41.8315 33.4391 41.8518C33.4797 41.8615 33.521 41.8731 33.5618 41.8825C33.569 41.8841 33.5752 41.8911 33.5821 41.8927C33.6265 41.9029 33.6705 41.9136 33.7151 41.9234C33.7183 41.9241 33.7219 41.9227 33.7252 41.9234C33.7927 41.9382 33.8619 41.9504 33.9298 41.9643C34.1151 42.0022 34.3045 42.0354 34.4923 42.0666C34.6046 42.0852 34.7165 42.1016 34.8298 42.1177C34.8945 42.127 34.9591 42.1399 35.0241 42.1484C35.0512 42.1519 35.0788 42.1553 35.1059 42.1586C35.1259 42.1611 35.1472 42.1562 35.1673 42.1586C35.7704 42.231 36.3855 42.2814 37.0082 42.2814C37.2505 42.2814 37.4947 42.2721 37.7343 42.2609C37.7546 42.26 37.7754 42.2619 37.7957 42.2609C38.0592 42.2475 38.3131 42.2262 38.5729 42.1995C38.6493 42.1918 38.7219 42.1777 38.7979 42.1689C38.9152 42.1552 39.0292 42.1443 39.1457 42.1279C39.2074 42.1192 39.2682 42.1067 39.3298 42.0973C39.3569 42.0931 39.3845 42.0913 39.4116 42.087C39.4394 42.0826 39.4655 42.0711 39.4934 42.0666C39.4999 42.0655 39.5071 42.0677 39.5137 42.0666C39.6915 42.0371 39.8699 42.0102 40.0455 41.9745C40.0592 41.9718 40.0727 41.9671 40.0864 41.9643C40.1142 41.9586 40.1405 41.9497 40.1682 41.9439C40.2019 41.9368 40.2369 41.9307 40.2705 41.9234C40.3047 41.916 40.3386 41.9106 40.3728 41.9029C40.4237 41.8915 40.4754 41.8842 40.5261 41.8723C40.5504 41.8665 40.5736 41.8576 40.5978 41.8518C40.6082 41.8493 40.6181 41.8441 40.6285 41.8416C40.842 41.7896 41.0528 41.7285 41.2626 41.6677C41.3316 41.6477 41.3986 41.6273 41.4672 41.6064C41.4878 41.5986 41.5072 41.5939 41.5285 41.5859C41.6488 41.5486 41.7675 41.5135 41.8865 41.4734C41.8934 41.471 41.8999 41.4655 41.9068 41.4632C42.0246 41.4233 42.1482 41.3933 42.2647 41.3507C42.3299 41.3268 42.3943 41.3038 42.4591 41.2791C42.4731 41.2737 42.4859 41.2641 42.5 41.2586C42.537 41.2444 42.5755 41.2323 42.6125 41.2177C42.6647 41.1972 42.714 41.1673 42.7659 41.1461C42.7757 41.1422 42.7868 41.1399 42.7966 41.1359C42.8025 41.1335 42.8114 41.1383 42.8169 41.1359C42.8251 41.132 42.8297 41.1294 42.8372 41.1257C42.8709 41.1118 42.9059 41.0988 42.9395 41.0848C42.9464 41.0818 42.9529 41.0775 42.9598 41.0745C43.0571 41.0334 43.1499 40.9847 43.2462 40.9416C43.376 40.8835 43.5069 40.8293 43.6348 40.7677C43.7109 40.7311 43.7845 40.6931 43.8598 40.6552C43.9274 40.6212 43.9973 40.5879 44.0643 40.5529C44.1133 40.5274 44.1589 40.4972 44.2075 40.4711C44.2209 40.4639 44.235 40.4579 44.2484 40.4507C44.2618 40.4435 44.2759 40.4375 44.2893 40.4302C44.3001 40.4244 44.3093 40.4156 44.3201 40.4098C44.3335 40.4025 44.3476 40.3966 44.361 40.3893C44.3744 40.382 44.3885 40.3762 44.4019 40.3689C44.4258 40.3556 44.4497 40.3413 44.4735 40.3279C44.5517 40.2841 44.6314 40.2402 44.7087 40.195C44.7153 40.1912 44.7225 40.1886 44.729 40.1848C44.746 40.1748 44.7631 40.1641 44.7801 40.1541C44.8317 40.1235 44.8824 40.0932 44.9336 40.062C45.0101 40.0155 45.0829 39.9667 45.1586 39.9189C45.1792 39.9057 45.1992 39.8912 45.2199 39.8779C45.3097 39.8206 45.3973 39.7633 45.4858 39.7041C45.5065 39.6903 45.5267 39.677 45.5472 39.6632C45.5636 39.6521 45.5819 39.6437 45.5983 39.6325C45.6189 39.6184 45.6391 39.6058 45.6597 39.5916C45.7822 39.5073 45.8978 39.4236 46.0177 39.3359C46.0216 39.3331 46.0242 39.3284 46.0278 39.3257C46.034 39.3212 46.0422 39.3199 46.0481 39.3154C46.0543 39.311 46.0625 39.3097 46.0684 39.3052C46.0723 39.3024 46.075 39.2978 46.0786 39.295C46.0825 39.2922 46.0851 39.2876 46.0887 39.2848C46.0926 39.2816 46.0949 39.2777 46.0988 39.2745C46.1047 39.27 46.1132 39.2688 46.1191 39.2643C46.123 39.2615 46.1256 39.2569 46.1292 39.2541C46.1351 39.2497 46.1437 39.2483 46.1495 39.2439C46.1535 39.241 46.1561 39.2365 46.1597 39.2336C46.1731 39.2235 46.1872 39.2131 46.2006 39.2029C46.2314 39.1797 46.262 39.1549 46.2926 39.1314C46.3416 39.0938 46.3873 39.057 46.4358 39.0189C46.4663 38.9949 46.4976 38.9714 46.5279 38.9473C46.5913 38.8967 46.6596 38.8454 46.7222 38.7939C46.7536 38.7679 46.7829 38.7382 46.8142 38.712C46.8178 38.7089 46.8208 38.7049 46.8244 38.7018C46.8303 38.697 46.8391 38.6964 46.8447 38.6916C46.8522 38.6854 46.8578 38.6773 46.865 38.6711C46.8761 38.6617 46.8846 38.6499 46.8957 38.6404C46.92 38.6199 46.9433 38.5998 46.9673 38.5791C46.9801 38.568 46.9853 38.5493 46.9981 38.5382C47.0056 38.5317 47.0213 38.5344 47.0289 38.5279C47.0987 38.4672 47.1647 38.4058 47.2334 38.3439C47.2494 38.3294 47.2686 38.3174 47.2845 38.3029C47.2917 38.2965 47.298 38.289 47.3048 38.2825C47.3101 38.2776 47.3199 38.2772 47.3251 38.2723C47.3464 38.2527 47.3652 38.2306 47.3865 38.2109C47.4483 38.1537 47.5097 38.0953 47.5706 38.037C47.5951 38.0136 47.6179 37.989 47.6422 37.9654C47.649 37.9587 47.6555 37.9517 47.6624 37.945C47.6677 37.9399 47.6775 37.9399 47.6827 37.9348C47.7001 37.9179 47.7166 37.9006 47.7339 37.8836C47.7581 37.8599 47.7815 37.836 47.8054 37.812C47.8087 37.8086 47.8123 37.8052 47.8156 37.8018C47.872 37.7453 47.9236 37.6853 47.9792 37.6279C47.9858 37.621 47.993 37.6145 47.9995 37.6075C48.0061 37.6006 48.0133 37.594 48.0198 37.587C48.0332 37.5731 48.0473 37.5601 48.0607 37.5461C48.1027 37.5021 48.142 37.4577 48.1835 37.4132C48.19 37.4062 48.1972 37.3998 48.2037 37.3927C48.2416 37.3519 48.2788 37.3112 48.3162 37.27C48.3261 37.2593 48.3372 37.25 48.347 37.2393C48.3585 37.2265 48.366 37.2112 48.3778 37.1984C48.3922 37.1823 48.4043 37.1635 48.4187 37.1473C48.4282 37.1365 48.4396 37.1274 48.4494 37.1166C48.4655 37.0985 48.4847 37.0836 48.5005 37.0654C48.5212 37.0419 48.5414 37.0175 48.5619 36.9939C48.5652 36.9902 48.5691 36.9873 48.5721 36.9836C48.5894 36.9634 48.6059 36.9425 48.6232 36.9223C48.6265 36.9186 48.6304 36.9157 48.6333 36.912C48.6507 36.8917 48.6672 36.8711 48.6844 36.8507C48.6969 36.8361 48.7132 36.8244 48.7253 36.8098C48.7502 36.7802 48.7724 36.7474 48.797 36.7177C48.8385 36.6674 48.8788 36.6152 48.9197 36.5643C48.9514 36.5248 48.9804 36.4814 49.0117 36.4416C49.0235 36.4266 49.0408 36.4157 49.0526 36.4007C49.068 36.381 49.0781 36.359 49.0935 36.3393C49.1456 36.2721 49.196 36.2029 49.247 36.1348C49.2525 36.1271 49.2617 36.122 49.2673 36.1143C49.2892 36.0848 49.3069 36.0519 49.3286 36.0223C49.3371 36.0107 49.3509 36.0032 49.3594 35.9916C49.3983 35.9383 49.4337 35.8818 49.4719 35.8279C49.4752 35.824 49.4794 35.8216 49.482 35.8177C49.5158 35.77 49.5511 35.7227 49.5843 35.6745V35.6643C49.5876 35.6606 49.5918 35.6578 49.5945 35.6541C49.6043 35.64 49.6154 35.6273 49.6252 35.6132C49.6285 35.6093 49.6327 35.6068 49.6354 35.6029C49.6396 35.5967 49.6413 35.5887 49.6455 35.5825C49.655 35.5685 49.6668 35.5556 49.6763 35.5416C49.6956 35.5127 49.708 35.4785 49.7274 35.4495C49.7655 35.3923 49.8025 35.3334 49.8399 35.2757C49.8448 35.2678 49.8553 35.2631 49.8602 35.2552C49.8759 35.2306 49.8957 35.2083 49.9113 35.1836C49.9153 35.1773 49.9176 35.1695 49.9215 35.1632C49.9254 35.1568 49.9277 35.1491 49.9316 35.1427C49.9355 35.1363 49.9378 35.1286 49.9417 35.1223C49.9591 35.0949 49.9759 35.0679 49.9929 35.0404C49.9962 35.0365 50.0007 35.0342 50.003 35.0302C50.0096 35.0198 50.0171 35.0099 50.0233 34.9995C50.0273 34.993 50.0295 34.9856 50.0335 34.9791C50.0367 34.9751 50.0413 34.9729 50.0436 34.9689C50.0498 34.9584 50.0577 34.9486 50.0639 34.9382C50.0678 34.9317 50.0701 34.9242 50.0741 34.9177C50.078 34.9112 50.0803 34.9038 50.0842 34.8973C50.1088 34.8567 50.1316 34.8153 50.1558 34.7745C50.1597 34.768 50.1623 34.7606 50.1659 34.7541C50.1698 34.7476 50.1725 34.7401 50.1761 34.7336C50.181 34.7255 50.1918 34.7213 50.1963 34.7132V34.7029C50.2009 34.6949 50.2121 34.6906 50.2166 34.6825C50.2281 34.6626 50.236 34.641 50.2474 34.6211C50.2886 34.5496 50.33 34.4786 50.3701 34.4064C50.393 34.3652 50.4192 34.325 50.4417 34.2836C50.4453 34.277 50.4482 34.2698 50.4518 34.2632V34.2529C50.4577 34.2423 50.4666 34.2329 50.4721 34.2223V34.212C50.507 34.147 50.5404 34.0833 50.5744 34.0177C50.578 34.011 50.5813 34.004 50.5845 33.9973C50.62 33.9287 50.6627 33.8619 50.6971 33.7927C50.7118 33.7629 50.7233 33.7306 50.738 33.7007C50.7514 33.6729 50.7655 33.6467 50.7789 33.6189C50.7822 33.612 50.7858 33.6053 50.7891 33.5984C50.7923 33.5915 50.7959 33.5848 50.7992 33.5779C50.809 33.5574 50.8201 33.5371 50.83 33.5166C50.8522 33.4696 50.8696 33.4207 50.8913 33.3734C50.9054 33.343 50.9185 33.3118 50.9322 33.2814C50.9893 33.155 51.0524 33.0311 51.1061 32.903C51.1399 32.8224 51.1657 32.7388 51.1981 32.6575C51.2336 32.5688 51.2666 32.4811 51.3004 32.3916C51.3083 32.3713 51.3132 32.3506 51.3207 32.3302C51.324 32.3231 51.3282 32.3169 51.3309 32.3098C51.3384 32.2894 51.3439 32.2688 51.3511 32.2484C51.3613 32.221 51.3721 32.194 51.3819 32.1666C51.4015 32.1122 51.4244 32.0576 51.4433 32.003C51.4479 31.9897 51.4488 31.9753 51.4534 31.962C51.4619 31.9377 51.4757 31.9149 51.4842 31.8905C51.4933 31.8629 51.5058 31.8362 51.5149 31.8086C51.528 31.7688 51.5326 31.7259 51.5457 31.6859C51.5611 31.638 51.5819 31.5909 51.5968 31.5427C51.605 31.516 51.609 31.4877 51.6171 31.4609C51.6224 31.4435 51.6322 31.4273 51.6374 31.4098C51.6446 31.3861 51.6509 31.3619 51.6577 31.3382V31.3075C51.6577 31.3035 51.6669 31.3013 51.6679 31.2973C51.6826 31.2476 51.6947 31.204 51.7088 31.1541C51.7121 31.147 51.717 31.1408 51.7189 31.1336C51.7484 31.028 51.7733 30.9232 51.8008 30.8166C51.804 30.8062 51.8083 30.7963 51.8109 30.7859C51.8145 30.7723 51.8178 30.7586 51.821 30.745C51.8371 30.6808 51.8466 30.6152 51.862 30.5507V30.5405C51.8652 30.5331 51.8704 30.5273 51.8721 30.52C51.8753 30.5095 51.8799 30.4998 51.8822 30.4893C51.8989 30.4175 51.9176 30.3468 51.9333 30.2746V30.2643C51.9379 30.244 51.9392 30.2233 51.9435 30.203C51.9523 30.1618 51.9657 30.1215 51.9743 30.0802C51.9913 29.9965 51.9995 29.9088 52.0152 29.8246C52.0184 29.8076 52.0224 29.7904 52.0253 29.7734C52.0286 29.763 52.0335 29.7532 52.0355 29.7427V29.7325C52.0499 29.6522 52.063 29.5678 52.0764 29.4871V29.4768C52.0796 29.4663 52.0849 29.4566 52.0865 29.4461C52.0931 29.4056 52.1006 29.3641 52.1068 29.3234V29.2927C52.1068 29.2854 52.116 29.2796 52.117 29.2723V29.2621C52.1202 29.2451 52.1248 29.2279 52.1271 29.2109V29.1905C52.1369 29.1228 52.1386 29.0539 52.1474 28.9859C52.1847 28.6993 52.2182 28.408 52.2394 28.1166C52.2397 28.1133 52.2392 28.1097 52.2394 28.1064C52.2397 28.103 52.2392 28.0995 52.2394 28.0962V28.0348V28.0143V27.9939C52.2394 27.98 52.2489 27.9668 52.2496 27.953V27.9223C52.2528 27.8745 52.2574 27.8271 52.2597 27.7791V27.7382C52.263 27.6943 52.2564 27.6493 52.2597 27.6052C52.2598 27.6021 52.2596 27.5982 52.2597 27.595C52.26 27.5882 52.2698 27.5814 52.2698 27.5746C52.2701 27.5678 52.2696 27.5609 52.2698 27.5541C52.2764 27.369 52.28 27.1784 52.28 26.9916C52.28 26.7933 52.2767 26.5949 52.2698 26.3984C52.2697 26.395 52.27 26.3916 52.2698 26.3882V26.3575C52.2698 26.3435 52.2604 26.3306 52.2597 26.3166V26.2348V26.2041C52.2564 26.1693 52.2515 26.1365 52.2496 26.1018V26.0814V26.0507C52.2453 25.9822 52.2443 25.9144 52.2394 25.8461V25.795C52.2361 25.771 52.2312 25.7474 52.2293 25.7234C52.2243 25.6648 52.2142 25.608 52.209 25.5496C52.2054 25.5123 52.2024 25.4743 52.1988 25.437C52.1988 25.4337 52.1988 25.4302 52.1988 25.4268C52.1923 25.3618 52.1857 25.2973 52.1785 25.2325C52.171 25.1678 52.1664 25.1027 52.1583 25.0382C52.152 24.9903 52.1442 24.9428 52.138 24.895C52.1278 24.82 52.1187 24.7446 52.1072 24.67V24.6495C52.1072 24.6457 52.0977 24.6432 52.0971 24.6393V24.6189C52.0905 24.5776 52.0833 24.5373 52.0768 24.4961C52.0696 24.452 52.064 24.4072 52.0565 24.3632C52.0404 24.2714 52.0229 24.1783 52.0053 24.087C52.0021 24.0733 51.9978 24.0599 51.9952 24.0461C51.9651 23.8912 51.9278 23.7391 51.8929 23.5859C51.8883 23.5658 51.8874 23.5446 51.8828 23.5246V23.5143C51.8795 23.5006 51.8759 23.4871 51.8726 23.4734C51.8693 23.4597 51.8657 23.4462 51.8625 23.4325C51.8491 23.3769 51.8353 23.3242 51.8216 23.2689V23.2587C51.8147 23.2313 51.8082 23.2042 51.8013 23.1768C51.7836 23.1086 51.7686 23.0401 51.7501 22.9723C51.7456 22.9549 51.7344 22.9386 51.7298 22.9212C51.7194 22.8837 51.7099 22.846 51.6991 22.8087C51.6866 22.7655 51.6811 22.7187 51.6683 22.6757C51.6523 22.6208 51.6339 22.5667 51.6172 22.5121C51.6077 22.4812 51.5963 22.4508 51.5865 22.42C51.5809 22.4023 51.5717 22.3866 51.5662 22.3689C51.5531 22.3279 51.5387 22.287 51.5253 22.2462V22.2359C51.4709 22.0698 51.4113 21.9086 51.3514 21.745C51.3037 21.6148 51.2593 21.4849 51.2082 21.3564C51.167 21.2525 51.1289 21.1523 51.0855 21.0496C51.0567 20.9813 51.0233 20.9128 50.9934 20.845C50.9229 20.685 50.8544 20.5215 50.7787 20.3643C50.7734 20.3532 50.7636 20.3447 50.7584 20.3336C50.6566 20.124 50.5522 19.9139 50.4413 19.7098C50.376 19.5895 50.3052 19.4702 50.2368 19.3518C50.1819 19.2571 50.13 19.1588 50.0731 19.0655C50.0331 18.9995 49.9915 18.9364 49.9504 18.8711C49.8609 18.7287 49.7683 18.591 49.6743 18.4518C47.9402 15.8845 45.4459 13.8795 42.5152 12.7452C42.4867 12.7342 42.4618 12.7151 42.4334 12.7043C42.3754 12.6822 42.3178 12.6643 42.2595 12.6429C42.1595 12.6063 42.0537 12.5752 41.9527 12.5406C41.9455 12.5382 41.9393 12.5328 41.9324 12.5304C41.889 12.5156 41.8431 12.5039 41.7994 12.4895C41.7145 12.4613 41.6293 12.4241 41.5438 12.3975C41.476 12.3764 41.4073 12.3562 41.3392 12.3361C41.1603 12.2832 40.9787 12.2394 40.7972 12.1929C40.7867 12.1903 40.7769 12.1853 40.7664 12.1827C40.7592 12.1809 40.753 12.1743 40.7461 12.1725C40.2777 12.0544 39.809 11.9598 39.3246 11.8861C39.0716 11.8474 38.8246 11.8201 38.5677 11.794C38.054 11.7419 37.5305 11.7122 37.0029 11.7122L37.0056 11.7119Z" fill="white"/>
</g>
<path fill-rule="evenodd" clip-rule="evenodd" d="M37.11 42.9196C46.0073 42.9196 53.22 35.6759 53.22 26.7403C53.22 24.7503 52.8622 22.8441 52.2078 21.0832C52.188 21.1379 52.0948 21.3008 51.6554 21.6218C51.4852 21.746 51.3789 21.8221 51.304 21.8756L51.3038 21.8757C51.2182 21.937 51.1737 21.9688 51.1219 22.0098C51.619 23.4956 51.8884 25.0864 51.8884 26.7404C51.8884 34.9375 45.2718 41.5825 37.1098 41.5825C28.9478 41.5825 22.3312 34.9375 22.3312 26.7404C22.3312 18.5433 28.9478 11.8982 37.1098 11.8982C40.511 11.8982 43.6438 13.0521 46.1413 14.9913C45.9674 14.6699 45.6517 14.3856 45.3163 14.0835C45.0739 13.8652 44.8212 13.6376 44.6042 13.38C44.2158 12.919 44.1717 12.3217 44.1666 12.1917C42.0356 11.1472 39.6409 10.561 37.11 10.561C28.2127 10.561 21 17.8048 21 26.7403C21 35.6759 28.2127 42.9196 37.11 42.9196Z" fill="#FBFBFB"/>
<path fill-rule="evenodd" clip-rule="evenodd" d="M50.4916 21.9798C51.0505 23.5053 51.3557 25.1539 51.3557 26.8741C51.3557 34.702 45.0371 41.0477 37.2428 41.0477C29.4484 41.0477 23.1299 34.702 23.1299 26.8741C23.1299 19.0463 29.4484 12.7005 37.2428 12.7005C41.2145 12.7005 44.8031 14.3483 47.3676 17.0002C47.3544 16.7223 47.257 16.0632 46.6904 15.2246C46.1583 14.4371 45.5758 13.8255 45.1778 13.4257C45.1446 13.3924 45.1101 13.3594 45.0751 13.3259C44.6894 12.9572 44.2423 12.5297 44.8992 11.0271C45.6156 9.38811 49.6359 6.5498 49.6359 6.5498L48.9991 9.86782L51.6262 10.3475C51.6262 10.3475 49.1583 10.7073 48.2826 11.9866C47.4407 13.2164 48.0436 14.5201 48.1879 14.8321C48.1937 14.8446 48.1988 14.8556 48.203 14.8648C48.4916 15.5026 48.7322 15.9327 49.1802 16.7336C49.3219 16.9869 49.4844 17.2773 49.6757 17.6232C50.374 18.8855 49.7249 19.7479 49.5548 19.9409C49.5625 19.9547 49.5702 19.9685 49.5779 19.9823C49.7531 19.9788 50.2783 19.9332 50.8301 19.542C51.5068 19.0623 51.7732 18.2289 51.8252 17.2634C51.8641 16.5404 51.8333 16.1379 51.8071 15.796C51.7797 15.4385 51.7574 15.1472 51.8252 14.625C52.064 12.7861 54.1339 11.187 54.1339 11.187C54.1339 11.187 54.0324 12.2373 53.9349 12.906C53.8434 13.5333 53.5766 14.585 53.5766 14.585C53.5766 14.585 54.6505 13.6227 55.8455 13.3457C56.363 13.2258 56.9999 13.3457 56.9999 13.3457C56.9999 13.3457 56.562 13.6656 55.7659 14.625C54.7708 15.8243 53.9923 16.9836 53.3776 18.3827C53.0716 19.0793 52.8852 19.4449 52.5019 20.1017C51.9515 21.0446 50.8746 21.7495 50.4916 21.9798Z" fill="#FBFBFB"/>
<path d="M33.3058 32.7753C32.4939 32.3093 32.1846 31.6881 32.1846 31.6881C32.8032 32.1152 32.8805 32.2026 33.5378 32.5035C34.4884 32.9386 35.6721 32.9863 36.6696 32.5685C37.2882 32.3093 37.2882 32.3093 37.9068 31.9599C37.9068 31.9599 37.5975 32.387 36.7469 32.853C35.5165 33.527 34.5233 33.474 33.3058 32.7753Z" fill="#263749"/>
<ellipse cx="30.3283" cy="29.334" rx="1.32827" ry="1.33398" fill="#263749"/>
<ellipse cx="41.5698" cy="28.5765" rx="1.56977" ry="1.57653" fill="#263749"/>
<path fill-rule="evenodd" clip-rule="evenodd" d="M30.5089 32.9944C28.3539 35.0058 27.1567 33.4383 26.5182 32.3508C25.3609 30.3796 24.8022 25.4719 25.72 23.2996C26.6379 21.1273 28.4736 22.0123 29.1521 22.5353C29.3224 22.6666 29.4735 22.7849 29.6144 22.8952C30.1556 23.3189 30.5472 23.6254 31.3071 24.1042C33.0571 25.2067 33.4719 25.0439 34.6043 24.5994L34.7391 24.5467C35.9712 24.0659 39.6078 21.7146 41.3637 20.5641C44.1546 18.7356 46.1127 19.8803 47.1902 22.0526C48.9337 25.5676 48.6668 29.4142 47.4296 31.9083C45.9131 34.9655 43.5187 34.1208 42.0022 33.4771C40.9607 33.0351 39.944 32.4303 38.9725 31.8524L38.9725 31.8524C37.2297 30.8156 35.6326 29.8656 34.3001 30.098C32.8071 30.3585 32.1538 31.1332 31.4344 31.9864L31.4344 31.9864C31.1538 32.3191 30.8633 32.6637 30.5089 32.9944ZM32.024 26.076C31.3455 25.1105 29.0708 23.9439 27.714 26.076C27.714 26.076 28.4323 25.6335 29.1506 25.8748C29.1506 25.8748 28.5433 26.3425 28.3126 26.7598C27.8678 27.5644 27.8649 28.7293 28.5919 29.5355C29.3901 30.4205 30.3479 30.7201 31.4254 30.4205C32.1487 30.2194 32.6504 29.4215 32.7024 28.5298C32.7423 27.846 32.6797 27.0091 32.024 26.076ZM44.316 25.0296C42.9591 22.8975 40.7243 23.0584 39.2876 24.748C38.689 25.452 38.25 26.2364 38.25 27.765C38.25 29.0121 38.9076 29.7812 39.6468 30.058C41.0436 30.581 42.5072 29.9942 43.2385 29.0523C43.9568 28.1271 44.0025 26.6387 43.5577 25.8341C43.327 25.4168 42.5999 24.7078 42.5999 24.7078C43.3183 24.4664 44.316 25.0296 44.316 25.0296Z" fill="#263749"/>
<defs>
<filter id="filter0_f_2018_5321" x="0.0195065" y="-9.98928" width="73.9615" height="73.9717" filterUnits="userSpaceOnUse" color-interpolation-filters="sRGB">
<feFlood flood-opacity="0" result="BackgroundImageFix"/>
<feBlend mode="normal" in="SourceGraphic" in2="BackgroundImageFix" result="shape"/>
<feGaussianBlur stdDeviation="10.8506" result="effect1_foregroundBlur_2018_5321"/>
</filter>
</defs>
</svg>
