<svg width="130" height="132" viewBox="0 0 130 132" fill="none" xmlns="http://www.w3.org/2000/svg">
<path fill-rule="evenodd" clip-rule="evenodd" d="M58.1709 131.193C90.2977 131.193 116.342 105.064 116.342 72.8326C116.342 65.6653 115.054 58.7998 112.698 52.4563C112.629 52.6498 112.298 53.2376 110.702 54.4025C110.087 54.851 109.703 55.1253 109.433 55.3184L109.432 55.3187C109.129 55.5356 108.968 55.6501 108.785 55.7942C110.575 61.1466 111.545 66.8765 111.545 72.8336C111.545 102.402 87.6534 126.371 58.1817 126.371C28.7099 126.371 4.81833 102.402 4.81833 72.8336C4.81833 43.2656 28.7099 19.296 58.1817 19.296C70.447 19.296 81.7458 23.4475 90.7582 30.4263C90.1241 29.2908 89.0022 28.2814 87.8111 27.2097L87.8111 27.2097C86.936 26.4222 86.0236 25.6012 85.2398 24.672C83.807 22.9731 83.6716 20.7603 83.6588 20.3573C75.962 16.5874 67.3127 14.4717 58.1709 14.4717C26.044 14.4717 0 40.6007 0 72.8326C0 105.064 26.044 131.193 58.1709 131.193Z" fill="white"/>
<path fill-rule="evenodd" clip-rule="evenodd" d="M106.477 55.6729C108.496 61.1768 109.599 67.1253 109.599 73.3321C109.599 101.568 86.7835 124.458 58.6393 124.458C30.4951 124.458 7.67969 101.568 7.67969 73.3321C7.67969 45.096 30.4951 22.2061 58.6393 22.2061C72.9911 22.2061 85.9573 28.1583 95.2189 37.7365C95.1785 36.7579 94.8447 34.3576 92.7716 31.2926C90.8503 28.4519 88.747 26.2454 87.3096 24.8033C87.1899 24.6832 87.0653 24.5642 86.9388 24.4433C85.5461 23.1131 83.9317 21.5711 86.3035 16.151C88.8907 10.2386 103.408 0 103.408 0L101.108 11.969L110.595 13.6995C110.595 13.6995 101.683 14.9974 98.521 19.6119C95.481 24.0482 97.6581 28.751 98.1792 29.8766C98.2001 29.9218 98.2184 29.9613 98.2336 29.9947C99.2758 32.2953 100.145 33.8468 101.762 36.7357C102.274 37.6496 102.861 38.6973 103.552 39.9449C106.098 44.543 103.683 47.6705 103.097 48.3252C103.122 48.3686 103.146 48.412 103.17 48.4555C103.773 48.4471 105.697 48.2995 107.72 46.8667C110.164 45.1363 111.126 42.1298 111.314 38.647C111.454 36.0388 111.343 34.587 111.248 33.3537C111.149 32.0641 111.069 31.0134 111.314 29.1295C112.176 22.496 119.65 16.7278 119.65 16.7278C119.65 16.7278 119.284 20.5165 118.932 22.9286C118.601 25.1914 117.638 28.9853 117.638 28.9853C117.638 28.9853 121.516 25.5139 125.831 24.5149C127.699 24.0823 129.999 24.5149 129.999 24.5149C129.999 24.5149 128.418 25.6686 125.543 29.1295C121.95 33.4556 119.139 37.6376 116.919 42.6848C115.814 45.1973 115.141 46.5165 113.757 48.8856C111.76 52.3041 107.841 54.8554 106.477 55.6729Z" fill="white"/>
<path d="M44.4258 94.6052C41.4938 92.9244 40.377 90.6833 40.377 90.6833C42.6108 92.224 42.89 92.5395 45.2635 93.6247C48.6963 95.1944 52.9706 95.3662 56.5724 93.8591C58.8063 92.9244 58.8063 92.9244 61.0401 91.6638C61.0401 91.6638 59.9232 93.2045 56.8516 94.8854C52.4087 97.3168 48.8221 97.1256 44.4258 94.6052Z" fill="#263749"/>
<ellipse cx="37.4917" cy="81.0377" rx="4.79639" ry="4.81206" fill="#263749"/>
<ellipse cx="67.7026" cy="78.9946" rx="5.66847" ry="5.68698" fill="#263749"/>
<path fill-rule="evenodd" clip-rule="evenodd" d="M34.3193 95.4134C26.5377 102.669 22.2146 97.0146 19.9089 93.0917C15.7299 85.9813 13.7125 68.2779 17.0269 60.442C20.3413 52.6061 26.97 55.7986 29.4198 57.685C30.0349 58.1587 30.5804 58.5853 31.0893 58.9832L31.0893 58.9833C33.0436 60.5116 34.4573 61.6173 37.2013 63.3442C43.5205 67.3212 45.0183 66.734 49.1076 65.1308L49.1085 65.1305C49.2664 65.0686 49.4282 65.0052 49.5942 64.9404C54.0432 63.2062 67.1748 54.7247 73.5154 50.5746C83.5931 43.9784 90.6637 48.1077 94.5545 55.9436C100.85 68.6233 99.8863 82.4987 95.4191 91.4954C89.9431 102.524 81.297 99.4764 75.8211 97.1547C72.0603 95.5602 68.3889 93.3784 64.8811 91.2939L64.881 91.2939C58.5875 87.5539 52.8206 84.1269 48.0091 84.9655C42.6177 85.9052 40.259 88.6995 37.661 91.7774C36.6481 92.9773 35.5988 94.2204 34.3193 95.4134ZM39.8105 70.4274C37.3607 66.9447 29.1467 62.7365 24.247 70.4274C24.247 70.4274 26.841 68.8312 29.4349 69.7019C29.4349 69.7019 27.2418 71.3888 26.4087 72.8943C24.8026 75.7966 24.792 79.9988 27.4174 82.907C30.2995 86.0995 33.7581 87.1803 37.6489 86.0995C40.261 85.3739 42.0725 82.4959 42.2603 79.2792C42.4044 76.8123 42.1782 73.7934 39.8105 70.4274ZM84.178 66.6808C79.2783 58.9899 71.2085 59.5703 66.0206 65.665C63.8591 68.2045 62.2739 71.0342 62.2739 76.5484C62.2739 81.0469 64.6482 83.8215 67.3176 84.8198C72.3613 86.7063 77.6465 84.5897 80.2871 81.192C82.881 77.8544 83.046 72.4853 81.44 69.583C80.6068 68.0775 77.9814 65.5199 77.9814 65.5199C80.5753 64.6493 84.178 66.6808 84.178 66.6808Z" fill="#263749"/>
</svg>
