<svg width="48" height="48" viewBox="0 0 48 48" fill="none" xmlns="http://www.w3.org/2000/svg">
<g clip-path="url(#clip0_5029_5456)">
<path d="M0 0V3.89144H6.02364V44.1106H0V48H26.176C33.6815 48 39.1906 46.876 42.702 44.6255C46.2342 42.375 47.9999 38.87 48 34.1118C48 30.5968 46.7388 27.778 44.2157 25.656C41.6926 23.5341 38.0657 22.248 33.3349 21.7978C37.2457 21.3691 40.189 20.3193 42.1655 18.6476C44.163 16.9758 45.1617 14.7141 45.1618 11.8634C45.1618 7.8982 43.7215 4.93084 40.841 2.95904C37.9605 0.9872 33.6502 4e-05 27.9101 0H0ZM18.1665 3.89144H22.298C26.0195 3.89144 28.7209 4.52288 30.403 5.7874C32.106 7.05192 32.9584 9.07716 32.9584 11.8635C32.9584 14.6284 32.0858 16.6868 30.3406 18.0371C28.5954 19.366 25.9146 20.0306 22.2981 20.0306H18.1665V3.89144ZM18.1665 23.8888H22.6765C26.6503 23.8888 29.6142 24.7353 31.5696 26.4285C33.5249 28.1218 34.5033 30.6826 34.5034 34.1118C34.5034 37.5198 33.5351 40.0394 31.6008 41.6684C29.6664 43.2974 26.6924 44.1106 22.6765 44.1106H18.1665V23.8888Z" fill="white"/>
</g>
<defs>
<clipPath id="clip0_5029_5456">
<rect width="48" height="48" fill="white"/>
</clipPath>
</defs>
</svg>
