<svg width="48" height="48" viewBox="0 0 48 48" fill="none" xmlns="http://www.w3.org/2000/svg">
<path d="M19.5 7.5H44.25V10.5H19.5V7.5Z" fill="white"/>
<path d="M3.75 9C3.75 10.1867 4.10189 11.3467 4.76118 12.3334C5.42047 13.3201 6.35754 14.0892 7.4539 14.5433C8.55026 14.9974 9.75666 15.1162 10.9205 14.8847C12.0844 14.6532 13.1535 14.0818 13.9926 13.2426C14.8318 12.4035 15.4032 11.3344 15.6347 10.1705C15.8662 9.00666 15.7474 7.80026 15.2933 6.7039C14.8392 5.60754 14.0701 4.67047 13.0834 4.01118C12.0967 3.35189 10.9367 3 9.75 3C8.15925 3.00179 6.63416 3.6345 5.50933 4.75933C4.3845 5.88416 3.75179 7.40925 3.75 9ZM9.75 6C10.3433 6 10.9234 6.17595 11.4167 6.50559C11.9101 6.83524 12.2946 7.30377 12.5216 7.85195C12.7487 8.40013 12.8081 9.00333 12.6924 9.58527C12.5766 10.1672 12.2909 10.7018 11.8713 11.1213C11.4518 11.5409 10.9172 11.8266 10.3353 11.9424C9.75333 12.0581 9.15013 11.9987 8.60195 11.7716C8.05377 11.5446 7.58524 11.1601 7.25559 10.6667C6.92595 10.1734 6.75 9.59334 6.75 9C6.75089 8.20462 7.06725 7.44208 7.62967 6.87967C8.19208 6.31725 8.95462 6.00089 9.75 6Z" fill="white"/>
<path d="M19.5 22.5H44.25V25.5H19.5V22.5Z" fill="white"/>
<path d="M9.75 30C10.9367 30 12.0967 29.6481 13.0834 28.9888C14.0701 28.3295 14.8392 27.3925 15.2933 26.2961C15.7474 25.1997 15.8662 23.9933 15.6347 22.8295C15.4032 21.6656 14.8318 20.5965 13.9926 19.7574C13.1535 18.9182 12.0844 18.3468 10.9205 18.1153C9.75666 17.8838 8.55026 18.0026 7.4539 18.4567C6.35754 18.9109 5.42047 19.6799 4.76118 20.6666C4.10189 21.6533 3.75 22.8133 3.75 24C3.75179 25.5908 4.3845 27.1158 5.50933 28.2407C6.63416 29.3655 8.15925 29.9982 9.75 30ZM9.75 21C10.3433 21 10.9234 21.176 11.4167 21.5056C11.9101 21.8352 12.2946 22.3038 12.5216 22.852C12.7487 23.4001 12.8081 24.0033 12.6924 24.5853C12.5766 25.1672 12.2909 25.7018 11.8713 26.1213C11.4518 26.5409 10.9172 26.8266 10.3353 26.9424C9.75333 27.0581 9.15013 26.9987 8.60195 26.7716C8.05377 26.5446 7.58524 26.1601 7.25559 25.6667C6.92595 25.1734 6.75 24.5933 6.75 24C6.75089 23.2046 7.06725 22.4421 7.62967 21.8797C8.19208 21.3173 8.95462 21.0009 9.75 21Z" fill="white"/>
<path d="M19.5 37.5H44.25V40.5H19.5V37.5Z" fill="white"/>
<path d="M9.75 45C10.9367 45 12.0967 44.6481 13.0834 43.9888C14.0701 43.3295 14.8392 42.3925 15.2933 41.2961C15.7474 40.1997 15.8662 38.9933 15.6347 37.8295C15.4032 36.6656 14.8318 35.5965 13.9926 34.7574C13.1535 33.9182 12.0844 33.3468 10.9205 33.1153C9.75666 32.8838 8.55026 33.0026 7.4539 33.4567C6.35754 33.9109 5.42047 34.6799 4.76118 35.6666C4.10189 36.6533 3.75 37.8133 3.75 39C3.75179 40.5908 4.3845 42.1158 5.50933 43.2407C6.63416 44.3655 8.15925 44.9982 9.75 45ZM9.75 36C10.3433 36 10.9234 36.176 11.4167 36.5056C11.9101 36.8352 12.2946 37.3038 12.5216 37.852C12.7487 38.4001 12.8081 39.0033 12.6924 39.5853C12.5766 40.1672 12.2909 40.7018 11.8713 41.1213C11.4518 41.5409 10.9172 41.8266 10.3353 41.9424C9.75333 42.0581 9.15013 41.9987 8.60195 41.7716C8.05377 41.5446 7.58524 41.1601 7.25559 40.6667C6.92595 40.1734 6.75 39.5933 6.75 39C6.75089 38.2046 7.06725 37.4421 7.62967 36.8797C8.19208 36.3173 8.95462 36.0009 9.75 36Z" fill="white"/>
</svg>
