<svg width="48" height="48" viewBox="0 0 48 48" fill="none" xmlns="http://www.w3.org/2000/svg">
<path d="M41.1727 10.6666H6.82604C6.43706 10.6666 6.06401 10.8211 5.78895 11.0962C5.5139 11.3713 5.35938 11.7443 5.35938 12.1333C5.35938 12.5223 5.5139 12.8953 5.78895 13.1704C6.06401 13.4454 6.43706 13.6 6.82604 13.6H41.1727C41.5617 13.6 41.9347 13.4454 42.2098 13.1704C42.4849 12.8953 42.6394 12.5223 42.6394 12.1333C42.6394 11.7443 42.4849 11.3713 42.2098 11.0962C41.9347 10.8211 41.5617 10.6666 41.1727 10.6666Z" fill="white"/>
<path d="M33.9999 21.6C34.3889 21.6 34.7619 21.4454 35.037 21.1704C35.312 20.8953 35.4665 20.5223 35.4665 20.1333C35.4665 19.7443 35.312 19.3713 35.037 19.0962C34.7619 18.8211 34.3889 18.6666 33.9999 18.6666H13.9999C13.6109 18.6666 13.2378 18.8211 12.9628 19.0962C12.6877 19.3713 12.5332 19.7443 12.5332 20.1333C12.5332 20.5223 12.6877 20.8953 12.9628 21.1704C13.2378 21.4454 13.6109 21.6 13.9999 21.6H33.9999Z" fill="white"/>
<path d="M40.3326 26.6666H7.66589C7.2769 26.6666 6.90385 26.8211 6.6288 27.0962C6.35374 27.3713 6.19922 27.7443 6.19922 28.1333C6.19922 28.5223 6.35374 28.8953 6.6288 29.1704C6.90385 29.4454 7.2769 29.6 7.66589 29.6H40.3326C40.7215 29.6 41.0946 29.4454 41.3696 29.1704C41.6447 28.8953 41.7992 28.5223 41.7992 28.1333C41.7992 27.7443 41.6447 27.3713 41.3696 27.0962C41.0946 26.8211 40.7215 26.6666 40.3326 26.6666Z" fill="white"/>
<path d="M33.1727 34.6666H14.826C14.6334 34.6666 14.4427 34.7046 14.2648 34.7783C14.0868 34.852 13.9251 34.96 13.789 35.0962C13.6528 35.2324 13.5447 35.3941 13.471 35.572C13.3973 35.75 13.3594 35.9407 13.3594 36.1333C13.3594 36.3259 13.3973 36.5166 13.471 36.6946C13.5447 36.8725 13.6528 37.0342 13.789 37.1704C13.9251 37.3066 14.0868 37.4146 14.2648 37.4883C14.4427 37.562 14.6334 37.6 14.826 37.6H33.1727C33.3653 37.6 33.556 37.562 33.734 37.4883C33.9119 37.4146 34.0736 37.3066 34.2098 37.1704C34.346 37.0342 34.454 36.8725 34.5277 36.6946C34.6014 36.5166 34.6394 36.3259 34.6394 36.1333C34.6394 35.9407 34.6014 35.75 34.5277 35.572C34.454 35.3941 34.346 35.2324 34.2098 35.0962C34.0736 34.96 33.9119 34.852 33.734 34.7783C33.556 34.7046 33.3653 34.6666 33.1727 34.6666Z" fill="white"/>
</svg>
