<svg width="48" height="48" viewBox="0 0 48 48" fill="none" xmlns="http://www.w3.org/2000/svg">
<path d="M32.37 38.736L27.528 33.891C25.6555 34.5605 23.6314 34.6844 21.6913 34.2485C19.7511 33.8126 17.9746 32.8347 16.5685 31.4285C15.1623 30.0224 14.1844 28.2459 13.7485 26.3057C13.3126 24.3656 13.4365 22.3415 14.106 20.469L7.926 14.289C2.814 18.834 0 24 0 24C0 24 9 40.5 24 40.5C26.8812 40.49 29.7298 39.8896 32.37 38.736ZM15.63 9.264C18.2702 8.11027 21.1188 7.50992 24 7.5C39 7.5 48 24 48 24C48 24 45.183 29.163 40.077 33.714L33.891 27.528C34.5605 25.6555 34.6844 23.6314 34.2485 21.6913C33.8126 19.7511 32.8347 17.9746 31.4285 16.5685C30.0224 15.1623 28.2459 14.1844 26.3057 13.7485C24.3656 13.3126 22.3415 13.4365 20.469 14.106L15.63 9.264Z" fill="white"/>
<path d="M16.5745 22.938C16.4095 24.0909 16.5152 25.2664 16.8834 26.3714C17.2515 27.4764 17.872 28.4804 18.6955 29.304C19.5191 30.1275 20.5231 30.7479 21.6281 31.1161C22.733 31.4843 23.9086 31.59 25.0615 31.425L16.5745 22.938ZM31.4245 25.062L22.9375 16.572C24.0904 16.407 25.266 16.5127 26.3709 16.8809C27.4759 17.249 28.4799 17.8695 29.3035 18.693C30.127 19.5166 30.7475 20.5206 31.1156 21.6256C31.4838 22.7305 31.5895 23.9061 31.4245 25.059V25.062ZM40.9375 43.062L4.9375 7.06199L7.0615 4.93799L43.0615 40.938L40.9375 43.062Z" fill="white"/>
</svg>
