<svg width="48" height="48" viewBox="0 0 48 48" fill="none" xmlns="http://www.w3.org/2000/svg">
<g clip-path="url(#clip0_5029_5502)">
<path d="M45.834 48C45.0192 48 43.7923 47.9635 42.1534 47.8906C40.5145 47.8177 39.2784 47.7812 38.4451 47.7812C37.6303 47.7812 36.4081 47.8177 34.7784 47.8906C33.1488 47.9635 31.9266 48 31.1118 48C30.6673 48 30.3247 47.7865 30.084 47.3594C29.8432 46.9323 29.7229 46.4583 29.7229 45.9375C29.7229 45.2917 29.8803 44.8125 30.1951 44.5C30.5099 44.1875 30.871 44.0104 31.2784 43.9688C31.6858 43.9271 32.1581 43.8542 32.6951 43.75C33.2321 43.6458 33.6488 43.4896 33.9451 43.2812C34.5562 42.8438 34.8618 41.3854 34.8618 38.9062L34.834 26.6875C34.834 26.25 34.8247 25.9271 34.8062 25.7188C34.5655 25.6354 34.1025 25.5938 33.4173 25.5938H14.6673C13.9636 25.5938 13.4914 25.6354 13.2507 25.7188C13.2321 25.9271 13.2229 26.25 13.2229 26.6875L13.1951 38.2812C13.1951 41.2396 13.5377 42.9479 14.2229 43.4062C14.5192 43.6146 14.9636 43.75 15.5562 43.8125C16.1488 43.875 16.6766 43.9115 17.1395 43.9219C17.6025 43.9323 18.0192 44.0885 18.3895 44.3906C18.7599 44.6927 18.9451 45.1667 18.9451 45.8125C18.9451 46.3542 18.8294 46.8542 18.5979 47.3125C18.3664 47.7708 18.0284 48 17.584 48C16.7136 48 15.4219 47.9635 13.709 47.8906C11.996 47.8177 10.7136 47.7812 9.86176 47.7812C9.06547 47.7812 7.88028 47.8177 6.30621 47.8906C4.73213 47.9635 3.55621 48 2.77843 48C2.3525 48 2.0238 47.7812 1.79232 47.3438C1.56084 46.9062 1.4451 46.4375 1.4451 45.9375C1.4451 45.3125 1.58861 44.8438 1.87565 44.5312C2.16269 44.2188 2.49602 44.0365 2.87565 43.9844C3.25528 43.9323 3.6951 43.8542 4.1951 43.75C4.6951 43.6458 5.08398 43.4896 5.36176 43.2812C5.97287 42.8021 6.27843 41.3125 6.27843 38.8125L6.25065 37.0312V11.625C6.25065 11.5625 6.25528 11.2917 6.26454 10.8125C6.2738 10.3333 6.2738 9.95312 6.26454 9.67188C6.25528 9.39062 6.24139 8.98958 6.22287 8.46875C6.20435 7.94792 6.17195 7.51042 6.12565 7.15625C6.07935 6.80208 6.01917 6.42188 5.9451 6.01562C5.87102 5.60938 5.76917 5.28125 5.63954 5.03125C5.50991 4.78125 5.36176 4.59375 5.1951 4.46875C4.91732 4.26042 4.50065 4.13542 3.9451 4.09375C3.38954 4.05208 2.8988 4.03125 2.47287 4.03125C2.04695 4.03125 1.66732 3.88542 1.33398 3.59375C1.00065 3.30208 0.833984 2.83333 0.833984 2.1875C0.833984 1.64583 0.945095 1.14583 1.16732 0.6875C1.38954 0.229167 1.72287 0 2.16732 0C3.01917 0 4.30158 0.0364583 6.01454 0.109375C7.7275 0.182292 9.00991 0.21875 9.86176 0.21875C10.6395 0.21875 11.8108 0.182292 13.3757 0.109375C14.9405 0.0364583 16.1118 0 16.8895 0C17.3525 0 17.6997 0.229167 17.9312 0.6875C18.1627 1.14583 18.2784 1.64583 18.2784 2.1875C18.2784 2.8125 18.121 3.26562 17.8062 3.54688C17.4914 3.82812 17.1349 3.97917 16.7368 4C16.3386 4.02083 15.8803 4.0625 15.3618 4.125C14.8432 4.1875 14.4451 4.32292 14.1673 4.53125C13.5192 4.96875 13.1951 6.63542 13.1951 9.53125L13.2229 19.5312C13.2229 19.9688 13.2321 20.3021 13.2507 20.5312C13.4914 20.5938 13.8525 20.625 14.334 20.625H33.7506C34.2136 20.625 34.5655 20.5938 34.8062 20.5312C34.8247 20.3021 34.834 19.9688 34.834 19.5312L34.8618 9.53125C34.8618 6.63542 34.5377 4.96875 33.8895 4.53125C33.5562 4.30208 33.0145 4.17188 32.2645 4.14062C31.5145 4.10938 30.9034 3.97396 30.4312 3.73438C29.959 3.49479 29.7229 2.97917 29.7229 2.1875C29.7229 1.64583 29.8386 1.14583 30.0701 0.6875C30.3016 0.229167 30.6488 0 31.1118 0C31.9266 0 33.1488 0.0364583 34.7784 0.109375C36.4081 0.182292 37.6303 0.21875 38.4451 0.21875C39.2414 0.21875 40.4358 0.182292 42.0284 0.109375C43.621 0.0364583 44.8155 0 45.6118 0C46.0747 0 46.4219 0.229167 46.6534 0.6875C46.8849 1.14583 47.0006 1.64583 47.0006 2.1875C47.0006 2.8125 46.8386 3.27083 46.5145 3.5625C46.1905 3.85417 45.8201 4.00521 45.4034 4.01562C44.9868 4.02604 44.5099 4.05729 43.9729 4.10938C43.4358 4.16146 43.0284 4.29167 42.7506 4.5C42.1025 4.97917 41.7784 6.65625 41.7784 9.53125L41.8062 39C41.8062 41.4792 42.121 42.9375 42.7506 43.375C43.0469 43.5833 43.4729 43.724 44.0284 43.7969C44.584 43.8698 45.0794 43.9167 45.5145 43.9375C45.9497 43.9583 46.334 44.1198 46.6673 44.4219C47.0006 44.724 47.1673 45.1875 47.1673 45.8125C47.1673 46.3542 47.0562 46.8542 46.834 47.3125C46.6118 47.7708 46.2784 48 45.834 48Z" fill="white"/>
</g>
<defs>
<clipPath id="clip0_5029_5502">
<rect width="48" height="48" fill="white"/>
</clipPath>
</defs>
</svg>
