<svg width="48" height="48" viewBox="0 0 48 48" fill="none" xmlns="http://www.w3.org/2000/svg">
<g clip-path="url(#clip0_5029_5479)">
<path d="M18.0059 16.5C18.0059 17.6935 17.5318 18.8381 16.6878 19.682C15.8439 20.5259 14.6993 21 13.5059 21C12.3124 21 11.1678 20.5259 10.3239 19.682C9.47996 18.8381 9.00586 17.6935 9.00586 16.5C9.00586 15.3065 9.47996 14.1619 10.3239 13.318C11.1678 12.4741 12.3124 12 13.5059 12C14.6993 12 15.8439 12.4741 16.6878 13.318C17.5318 14.1619 18.0059 15.3065 18.0059 16.5Z" fill="white"/>
<path d="M6.00586 3C4.41456 3 2.88844 3.63214 1.76322 4.75736C0.638001 5.88258 0.00585938 7.4087 0.00585938 9V39C0.00585938 40.5913 0.638001 42.1174 1.76322 43.2426C2.88844 44.3679 4.41456 45 6.00586 45H42.0059C43.5972 45 45.1233 44.3679 46.2485 43.2426C47.3737 42.1174 48.0059 40.5913 48.0059 39V9C48.0059 7.4087 47.3737 5.88258 46.2485 4.75736C45.1233 3.63214 43.5972 3 42.0059 3H6.00586ZM42.0059 6C42.8015 6 43.5646 6.31607 44.1272 6.87868C44.6898 7.44129 45.0059 8.20435 45.0059 9V28.5L33.6749 22.659C33.3935 22.5181 33.075 22.4692 32.7644 22.5193C32.4537 22.5693 32.1667 22.7158 31.9439 22.938L20.8139 34.068L12.8339 28.752C12.5457 28.5602 12.2001 28.4739 11.8557 28.5078C11.5112 28.5417 11.1891 28.6937 10.9439 28.938L3.00586 36V9C3.00586 8.20435 3.32193 7.44129 3.88454 6.87868C4.44715 6.31607 5.21021 6 6.00586 6H42.0059Z" fill="white"/>
</g>
<defs>
<clipPath id="clip0_5029_5479">
<rect width="48" height="48" fill="white"/>
</clipPath>
</defs>
</svg>
