<svg width="48" height="48" viewBox="0 0 48 48" fill="none" xmlns="http://www.w3.org/2000/svg">
<path d="M42.8886 5.23437C37.9174 0.263185 29.8285 0.263185 24.8575 5.23437L15.8418 14.25L17.9633 16.3713L26.9787 7.35565C28.8072 5.52718 31.2872 4.49995 33.873 4.49996C35.1534 4.49997 36.4213 4.75216 37.6042 5.24215C38.7871 5.73214 39.862 6.45032 40.7673 7.3557C41.6727 8.26108 42.3909 9.33591 42.8809 10.5188C43.3709 11.7018 43.623 12.9696 43.623 14.25C43.623 15.5304 43.3708 16.7983 42.8808 17.9812C42.3909 19.1641 41.6727 20.2389 40.7673 21.1443L31.7516 30.16L33.8726 32.2812L42.8883 23.2656C47.8601 18.2944 47.8601 10.2057 42.8886 5.23437Z" fill="white"/>
<path d="M21.1443 40.7666C19.3158 42.5951 16.8359 43.6223 14.25 43.6223C11.6642 43.6223 9.18421 42.5951 7.35573 40.7666C5.52726 38.9381 4.50003 36.4582 4.50003 33.8723C4.50003 31.2864 5.52726 28.8065 7.35573 26.978L15.8411 18.4926L13.7199 16.3713L5.23436 24.8567C4.04579 26.0397 3.10225 27.4454 2.45777 28.9936C1.81328 30.5417 1.48052 32.2017 1.47852 33.8786C1.47653 35.5555 1.80536 37.2164 2.44616 38.766C3.08697 40.3156 4.02717 41.7236 5.21293 42.9094C6.39868 44.0951 7.8067 45.0353 9.35634 45.6761C10.906 46.3169 12.5668 46.6457 14.2437 46.6437C15.9206 46.6417 17.5807 46.309 19.1288 45.6645C20.6769 45.02 22.0827 44.0764 23.2656 42.8879L31.7509 34.4026L29.6296 32.2813L21.1443 40.7666Z" fill="white"/>
<path d="M12.1289 33.8722L33.3421 12.6589L35.4635 14.7803L14.2502 35.9935L12.1289 33.8722Z" fill="white"/>
</svg>
