<svg width="48" height="48" viewBox="0 0 48 48" fill="none" xmlns="http://www.w3.org/2000/svg">
<path d="M7.28039 9.87998V15.4133H8.86706V8.06665H7.60039L5.40039 9.54665L6.02706 10.6666L7.28039 9.87998Z" fill="white"/>
<path d="M7.42695 21.8507C7.56435 21.8379 7.70292 21.8533 7.83415 21.8959C7.96539 21.9386 8.08652 22.0076 8.19014 22.0987C8.29376 22.1899 8.37767 22.3012 8.43674 22.4259C8.4958 22.5506 8.52877 22.6861 8.53362 22.824C8.53362 23.3307 8.25362 23.8107 7.37362 24.5173L4.70695 26.6107V27.944H10.227V26.464H7.10695L8.44029 25.4373C9.77362 24.504 10.147 23.744 10.147 22.7707C10.1357 22.4382 10.0565 22.1115 9.91438 21.8107C9.77221 21.5099 9.57004 21.2414 9.32029 21.0216C9.07053 20.8018 8.77846 20.6354 8.46204 20.5326C8.14562 20.4299 7.81152 20.3929 7.48029 20.424C6.92461 20.4208 6.37612 20.5497 5.88002 20.8C5.38393 21.0504 4.95444 21.4151 4.62695 21.864L5.64029 22.8373C5.84388 22.5483 6.1105 22.3092 6.42002 22.1383C6.72954 21.9674 7.07385 21.869 7.42695 21.8507Z" fill="white"/>
<path d="M8.74646 36.6512C9.12495 36.5566 9.46129 36.339 9.70264 36.0325C9.94398 35.7259 10.0766 35.3479 10.0798 34.9578C10.0798 33.7978 9.03979 32.9445 7.41313 32.9445C6.8751 32.9351 6.34223 33.0507 5.85639 33.282C5.37055 33.5134 4.94498 33.8542 4.61313 34.2778L5.53313 35.2378C5.74605 34.982 6.01041 34.7738 6.30903 34.6268C6.60765 34.4798 6.93386 34.3972 7.26646 34.3845C7.98646 34.3845 8.49313 34.7312 8.49313 35.2645C8.49313 35.7978 8.01313 36.0912 7.15979 36.0912H6.38646V37.4245H7.23979C8.22646 37.4245 8.66646 37.7045 8.66646 38.2645C8.66646 38.8245 8.19979 39.1712 7.33313 39.1712C6.9665 39.1683 6.60441 39.0898 6.26946 38.9407C5.93452 38.7916 5.63393 38.575 5.38646 38.3045L4.45312 39.3445C4.82472 39.7528 5.28083 40.0753 5.78971 40.2894C6.2986 40.5036 6.84804 40.6043 7.39979 40.5845C9.11979 40.5845 10.2398 39.6645 10.2398 38.3978C10.2387 37.9768 10.0879 37.5699 9.81433 37.2499C9.54073 36.9299 9.1622 36.7176 8.74646 36.6512Z" fill="white"/>
<path d="M42.7605 12C42.7605 11.6463 42.62 11.3072 42.37 11.0572C42.1199 10.8071 41.7808 10.6666 41.4272 10.6666H12.8672V13.3333H41.4272C41.7808 13.3333 42.1199 13.1928 42.37 12.9428C42.62 12.6927 42.7605 12.3536 42.7605 12Z" fill="white"/>
<path d="M42.7866 23.4241H14.2266V26.0907H42.7866C43.1402 26.0907 43.4793 25.9503 43.7294 25.7002C43.9794 25.4502 44.1199 25.111 44.1199 24.7574C44.1199 24.4038 43.9794 24.0646 43.7294 23.8146C43.4793 23.5645 43.1402 23.4241 42.7866 23.4241Z" fill="white"/>
<path d="M42.8002 35.7979H14.2402V38.4645H42.8002C43.1539 38.4645 43.493 38.324 43.743 38.074C43.9931 37.8239 44.1336 37.4848 44.1336 37.1312C44.1336 36.7776 43.9931 36.4384 43.743 36.1884C43.493 35.9383 43.1539 35.7979 42.8002 35.7979Z" fill="white"/>
</svg>
