<svg width="48" height="48" viewBox="0 0 48 48" fill="none" xmlns="http://www.w3.org/2000/svg">
<path d="M36.0005 36C36.7962 36 37.5592 35.6839 38.1218 35.1213C38.6844 34.5587 39.0005 33.7956 39.0005 33V25.674C39.0005 24.8783 38.6844 24.1153 38.1218 23.5527C37.5592 22.9901 36.7962 22.674 36.0005 22.674H31.8365C31.8365 21.621 31.8995 20.565 32.0225 19.512C32.2085 18.396 32.5205 17.403 32.9525 16.536C33.3875 15.666 33.9455 14.985 34.6295 14.487C35.3105 13.929 36.1775 13.65 37.2335 13.65V9C35.4965 9 33.9785 9.372 32.6735 10.116C31.3799 10.8525 30.2676 11.8694 29.4185 13.092C28.5663 14.4399 27.9382 15.9171 27.5585 17.466C27.176 19.1753 26.9888 20.9225 27.0005 22.674V33C27.0005 33.7956 27.3166 34.5587 27.8792 35.1213C28.4418 35.6839 29.2049 36 30.0005 36H36.0005ZM18.0005 36C18.7962 36 19.5592 35.6839 20.1218 35.1213C20.6844 34.5587 21.0005 33.7956 21.0005 33V25.674C21.0005 24.8783 20.6844 24.1153 20.1218 23.5527C19.5592 22.9901 18.7962 22.674 18.0005 22.674H13.8365C13.8365 21.621 13.8995 20.565 14.0225 19.512C14.2085 18.396 14.5205 17.403 14.9525 16.536C15.3875 15.666 15.9455 14.985 16.6295 14.487C17.3105 13.929 18.1775 13.65 19.2335 13.65V9C17.4965 9 15.9785 9.372 14.6735 10.116C13.3799 10.8525 12.2676 11.8694 11.4185 13.092C10.5663 14.4399 9.93815 15.9171 9.55852 17.466C9.17598 19.1753 8.98878 20.9225 9.00052 22.674V33C9.00052 33.7956 9.31659 34.5587 9.8792 35.1213C10.4418 35.6839 11.2049 36 12.0005 36H18.0005Z" fill="white"/>
</svg>
