<svg width="48" height="48" viewBox="0 0 48 48" fill="none" xmlns="http://www.w3.org/2000/svg">
<g clip-path="url(#clip0_5029_5464)">
<path d="M47.1429 24C47.3929 24 47.5982 24.0938 47.7589 24.2812C47.9196 24.4688 48 24.7083 48 25V27C48 27.2917 47.9196 27.5312 47.7589 27.7188C47.5982 27.9062 47.3929 28 47.1429 28H0.857143C0.607143 28 0.401786 27.9062 0.241071 27.7188C0.0803571 27.5312 0 27.2917 0 27V25C0 24.7083 0.0803571 24.4688 0.241071 24.2812C0.401786 24.0938 0.607143 24 0.857143 24H47.1429ZM12.9375 22C12.4375 21.2708 11.9821 20.4375 11.5714 19.5C10.7143 17.4583 10.2857 15.5 10.2857 13.625C10.2857 9.85417 11.4821 6.63542 13.875 3.96875C16.25 1.32292 19.7589 0 24.4018 0C25.2946 0 26.7857 0.197917 28.875 0.59375C30.0536 0.84375 31.6339 1.34375 33.6161 2.09375C33.7946 2.88542 33.9821 4.11458 34.1786 5.78125C34.4286 8.34375 34.5536 10.25 34.5536 11.5C34.5536 11.875 34.5089 12.3438 34.4196 12.9062L34.0982 13L31.8482 12.8125L31.4732 12.75C30.5804 9.64583 29.6607 7.51042 28.7143 6.34375C27.1429 4.44792 25.2679 3.5 23.0893 3.5C21.0536 3.5 19.4286 4.11458 18.2143 5.34375C17.0179 6.55208 16.4196 8.07292 16.4196 9.90625C16.4196 11.4271 17.0089 12.8854 18.1875 14.2812C19.3661 15.6771 21.8571 17.0208 25.6607 18.3125C26.8929 18.7292 28.4375 19.4167 30.2946 20.375C31.3304 20.9583 32.1786 21.5 32.8393 22H12.9375ZM26.5179 30H37.5268C37.6518 30.8125 37.7143 31.7708 37.7143 32.875C37.7143 35.1875 37.3482 37.3958 36.6161 39.5C36.2054 40.6667 35.5714 41.75 34.7143 42.75C34.0536 43.4792 33.0804 44.3229 31.7946 45.2812C30.3661 46.2812 29 46.9688 27.6964 47.3438C26.2679 47.7812 24.4554 48 22.2589 48C20.2232 48 18.4821 47.7604 17.0357 47.2812L13.2857 46.0312C12.2679 45.6979 11.625 45.4062 11.3571 45.1562C11.2143 44.9896 11.1429 44.7604 11.1429 44.4688V44.0625C11.1429 41.8125 11.125 40.1875 11.0893 39.1875C11.0714 38.5625 11.0714 37.8542 11.0893 37.0625L11.1429 35.9062V34.5312L13.875 34.4688C14.1429 35.1771 14.4107 35.9167 14.6786 36.6875C14.9464 37.4583 15.1473 38.0417 15.2813 38.4375C15.4152 38.8333 15.5268 39.1146 15.6161 39.2812C16.2411 40.4688 16.9554 41.4479 17.7589 42.2188C18.5268 42.9688 19.4643 43.5625 20.5714 44C21.625 44.4583 22.8036 44.6875 24.1071 44.6875C25.25 44.6875 26.4911 44.4062 27.8304 43.8438C29.2054 43.3021 30.2946 42.4062 31.0982 41.1562C31.9375 39.8854 32.3571 38.5417 32.3571 37.125C32.3571 35.375 31.6339 33.7396 30.1875 32.2188C29.5804 31.6146 28.3571 30.875 26.5179 30Z" fill="white"/>
</g>
<defs>
<clipPath id="clip0_5029_5464">
<rect width="48" height="48" fill="white"/>
</clipPath>
</defs>
</svg>
