<svg width="48" height="48" viewBox="0 0 48 48" fill="none" xmlns="http://www.w3.org/2000/svg">
<path d="M31.5 39H6C5.20435 39 4.44129 38.6839 3.87868 38.1213C3.31607 37.5587 3 36.7956 3 36V12C3 11.2044 3.31607 10.4413 3.87868 9.87868C4.44129 9.31607 5.20435 9 6 9H31.5C32.2956 9 33.0587 9.31607 33.6213 9.87868C34.1839 10.4413 34.5 11.2044 34.5 12V18.09L42.63 12.285C42.8539 12.1256 43.1172 12.0308 43.3913 12.0109C43.6655 11.9909 43.9398 12.0467 44.1843 12.1721C44.4289 12.2975 44.6343 12.4876 44.7781 12.7218C44.922 12.956 44.9987 13.2252 45 13.5V34.5C44.9987 34.7748 44.922 35.044 44.7781 35.2782C44.6343 35.5124 44.4289 35.7025 44.1843 35.8279C43.9398 35.9533 43.6655 36.0091 43.3913 35.9891C43.1172 35.9692 42.8539 35.8744 42.63 35.715L34.5 29.91V36C34.5 36.7956 34.1839 37.5587 33.6213 38.1213C33.0587 38.6839 32.2956 39 31.5 39Z" fill="white"/>
</svg>
