<svg width="48" height="48" viewBox="0 0 48 48" fill="none" xmlns="http://www.w3.org/2000/svg">
<g clip-path="url(#clip0_5029_5483)">
<path d="M24.153 5.99695H24.42C26.886 6.00595 39.381 6.09595 42.75 7.00195C43.7685 7.27845 44.6966 7.81742 45.4415 8.56497C46.1864 9.31253 46.7221 10.2425 46.995 11.2619C47.298 12.4019 47.511 13.9109 47.655 15.4679L47.685 15.7799L47.751 16.5599L47.775 16.8719C47.97 19.6139 47.994 22.1819 47.997 22.7429V22.9679C47.994 23.5499 47.967 26.2919 47.751 29.1479L47.727 29.463L47.7 29.775C47.55 31.491 47.328 33.195 46.995 34.449C46.7229 35.4688 46.1875 36.3992 45.4425 37.1469C44.6974 37.8946 43.7689 38.4333 42.75 38.709C39.27 39.645 26.043 39.711 24.21 39.714H23.784C22.857 39.714 19.023 39.696 15.003 39.558L14.493 39.54L14.232 39.528L13.719 39.507L13.206 39.486C9.876 39.339 6.705 39.102 5.244 38.706C4.22547 38.4305 3.2972 37.8923 2.55217 37.1452C1.80715 36.398 1.27154 35.4683 0.999 34.449C0.666 33.198 0.444 31.491 0.294 29.775L0.27 29.4599L0.246 29.1479C0.0979428 27.1151 0.0158996 25.0781 0 23.0399L0 22.6709C0.006 22.0259 0.03 19.7969 0.192 17.3369L0.213 17.0279L0.222 16.8719L0.246 16.5599L0.312 15.7799L0.342 15.4679C0.486 13.9109 0.699 12.3989 1.002 11.2619C1.27408 10.2421 1.80949 9.31168 2.55454 8.564C3.29959 7.81631 4.22811 7.27763 5.247 7.00195C6.708 6.61195 9.879 6.37195 13.209 6.22195L13.719 6.20095L14.235 6.18295L14.493 6.17395L15.006 6.15295C17.8611 6.06107 20.7174 6.01007 23.574 5.99995H24.153V5.99695ZM19.2 15.6269V30.081L31.671 22.8569L19.2 15.6269Z" fill="white"/>
</g>
<defs>
<clipPath id="clip0_5029_5483">
<rect width="48" height="48" fill="white"/>
</clipPath>
</defs>
</svg>
