<svg width="30" height="30" viewBox="0 0 30 30" fill="none" xmlns="http://www.w3.org/2000/svg">
<path d="M15 0.75C22.8701 0.75 29.25 7.12994 29.25 15C29.25 22.8701 22.8701 29.25 15 29.25C7.12994 29.25 0.75 22.8701 0.75 15C0.75 7.12994 7.12994 0.75 15 0.75Z" stroke="#F2C94C" stroke-width="1.5"/>
<path d="M9.27734 13.1782C10.6581 13.1782 11.7773 12.0589 11.7773 10.6782C11.7773 9.29751 10.6581 8.17822 9.27734 8.17822C7.89663 8.17822 6.77734 9.29751 6.77734 10.6782C6.77734 12.0589 7.89663 13.1782 9.27734 13.1782Z" fill="#F2C94C"/>
<path d="M20.75 13C22.1307 13 23.25 11.8807 23.25 10.5C23.25 9.11929 22.1307 8 20.75 8C19.3693 8 18.25 9.11929 18.25 10.5C18.25 11.8807 19.3693 13 20.75 13Z" fill="#F2C94C"/>
<path d="M23.0551 16.7138C20.8911 19.7673 18.3301 20.9998 15.0001 20.9998C11.6706 20.9998 9.10855 19.7678 6.94455 16.7138C6.64305 16.2888 5.84955 16.5563 6.02505 17.1733C7.16155 21.1758 11.0251 23.5068 15.0001 23.5068C18.9751 23.5068 22.8391 21.1758 23.9756 17.1733C24.1501 16.5558 23.3566 16.2888 23.0551 16.7138Z" fill="#F2C94C"/>
</svg>
