<svg width="30" height="30" viewBox="0 0 30 30" fill="none" xmlns="http://www.w3.org/2000/svg">
<path d="M15 30C23.2843 30 30 23.2843 30 15C30 6.71573 23.2843 0 15 0C6.71573 0 0 6.71573 0 15C0 23.2843 6.71573 30 15 30Z" fill="#F2C94C"/>
<path d="M9.27637 13.1782C10.6571 13.1782 11.7764 12.0589 11.7764 10.6782C11.7764 9.29751 10.6571 8.17822 9.27637 8.17822C7.89566 8.17822 6.77637 9.29751 6.77637 10.6782C6.77637 12.0589 7.89566 13.1782 9.27637 13.1782Z" fill="white"/>
<path d="M20.75 13C22.1307 13 23.25 11.8807 23.25 10.5C23.25 9.11929 22.1307 8 20.75 8C19.3693 8 18.25 9.11929 18.25 10.5C18.25 11.8807 19.3693 13 20.75 13Z" fill="white"/>
<path d="M23.0551 16.7141C20.8911 19.7676 18.3301 21.0001 15.0001 21.0001C11.6706 21.0001 9.10855 19.7681 6.94455 16.7141C6.64305 16.2891 5.84955 16.5566 6.02505 17.1736C7.16155 21.1761 11.0251 23.5071 15.0001 23.5071C18.9751 23.5071 22.8391 21.1761 23.9756 17.1736C24.1501 16.5561 23.3566 16.2891 23.0551 16.7141Z" fill="white"/>
</svg>
