<svg width="30" height="30" viewBox="0 0 30 30" fill="none" xmlns="http://www.w3.org/2000/svg">
<path d="M15 0.75C22.8701 0.75 29.25 7.12994 29.25 15C29.25 22.8701 22.8701 29.25 15 29.25C7.12994 29.25 0.75 22.8701 0.75 15C0.75 7.12994 7.12994 0.75 15 0.75Z" stroke="#F2C94C" stroke-width="1.5"/>
<path d="M9.5 13.1782C10.8807 13.1782 12 12.0589 12 10.6782C12 9.29751 10.8807 8.17822 9.5 8.17822C8.11929 8.17822 7 9.29751 7 10.6782C7 12.0589 8.11929 13.1782 9.5 13.1782Z" fill="#F2C94C"/>
<path d="M20.9727 13C22.3534 13 23.4727 11.8807 23.4727 10.5C23.4727 9.11929 22.3534 8 20.9727 8C19.5919 8 18.4727 9.11929 18.4727 10.5C18.4727 11.8807 19.5919 13 20.9727 13Z" fill="#F2C94C"/>
<path d="M19.295 19.5H10.705C9.765 19.5 9.765 21.5 10.705 21.5H19.295C20.235 21.5 20.235 19.5 19.295 19.5Z" fill="#F2C94C"/>
</svg>
