<svg width="30" height="30" viewBox="0 0 30 30" fill="none" xmlns="http://www.w3.org/2000/svg">
<path d="M15 30C23.2843 30 30 23.2843 30 15C30 6.71573 23.2843 0 15 0C6.71573 0 0 6.71573 0 15C0 23.2843 6.71573 30 15 30Z" fill="#F2C94C"/>
<path d="M9.5 13.1782C10.8807 13.1782 12 12.0589 12 10.6782C12 9.29751 10.8807 8.17822 9.5 8.17822C8.11929 8.17822 7 9.29751 7 10.6782C7 12.0589 8.11929 13.1782 9.5 13.1782Z" fill="white"/>
<path d="M20.9736 13C22.3543 13 23.4736 11.8807 23.4736 10.5C23.4736 9.11929 22.3543 8 20.9736 8C19.5929 8 18.4736 9.11929 18.4736 10.5C18.4736 11.8807 19.5929 13 20.9736 13Z" fill="white"/>
<path d="M15.2235 19C12.9541 19 11.1826 20.0978 10.3056 21.4192C10.0701 21.7726 10.3826 22.1556 10.7296 21.935C13.626 20.087 16.839 20.0986 19.7179 21.935C20.0644 22.1556 20.3769 21.7726 20.1419 21.4192C19.2645 20.0978 17.492 19 15.2235 19Z" fill="white"/>
</svg>
