<svg width="30" height="30" viewBox="0 0 30 30" fill="none" xmlns="http://www.w3.org/2000/svg">
<path d="M15 0.75C22.8701 0.75 29.25 7.12994 29.25 15C29.25 22.8701 22.8701 29.25 15 29.25C7.12994 29.25 0.75 22.8701 0.75 15C0.75 7.12994 7.12994 0.75 15 0.75Z" stroke="#F2C94C" stroke-width="1.5"/>
<path d="M9.5 13.1782C10.8807 13.1782 12 12.0589 12 10.6782C12 9.29751 10.8807 8.17822 9.5 8.17822C8.11929 8.17822 7 9.29751 7 10.6782C7 12.0589 8.11929 13.1782 9.5 13.1782Z" fill="#F2C94C"/>
<path d="M20.9727 13C22.3534 13 23.4727 11.8807 23.4727 10.5C23.4727 9.11929 22.3534 8 20.9727 8C19.5919 8 18.4727 9.11929 18.4727 10.5C18.4727 11.8807 19.5919 13 20.9727 13Z" fill="#F2C94C"/>
<path d="M15.2226 19C12.9531 19 11.1816 20.0978 10.3046 21.4192C10.0691 21.7726 10.3816 22.1556 10.7286 21.935C13.6251 20.087 16.838 20.0986 19.717 21.935C20.0635 22.1556 20.376 21.7726 20.141 21.4192C19.2635 20.0978 17.491 19 15.2226 19Z" fill="#F2C94C"/>
</svg>
