<svg width="30" height="30" viewBox="0 0 30 30" fill="none" xmlns="http://www.w3.org/2000/svg">
<path d="M18.1954 16.5228C16.8925 17.8257 14.7801 17.8257 13.4772 16.5228C12.1743 15.2199 12.1743 13.1075 13.4772 11.8045L16.4261 8.85563C17.6697 7.61201 19.6508 7.55541 20.9615 8.68582M20.5546 4.72719C21.8575 3.42427 23.9699 3.42427 25.2728 4.72719C26.5757 6.0301 26.5757 8.14254 25.2728 9.44545L22.3239 12.3944C21.0803 13.638 19.0992 13.6946 17.7885 12.5642" stroke="#FF5757" stroke-width="1.5" stroke-linecap="round"/>
<path d="M26.25 16.25C26.25 20.964 26.25 23.3211 24.7855 24.7855C23.3211 26.25 20.964 26.25 16.25 26.25H13.75C9.03595 26.25 6.67893 26.25 5.21447 24.7855C3.75 23.3211 3.75 20.964 3.75 16.25V13.75C3.75 9.03595 3.75 6.67893 5.21447 5.21447C6.67893 3.75 9.03595 3.75 13.75 3.75" stroke="#FF5757" stroke-width="1.5" stroke-linecap="round"/>
</svg>
