<svg width="30" height="30" viewBox="0 0 30 30" fill="none" xmlns="http://www.w3.org/2000/svg">
<path d="M10.625 18.125H19.375M10.625 11.875H15" stroke="#FF5757" stroke-width="1.5" stroke-linecap="round" stroke-linejoin="round"/>
<path d="M17.7133 26.1132C22.942 25.7656 27.107 21.5415 27.4497 16.2386C27.5168 15.2008 27.5168 14.1262 27.4497 13.0884C27.107 7.78547 22.942 3.56142 17.7133 3.21384C15.9294 3.09526 14.067 3.09551 12.2867 3.21384C7.05798 3.56142 2.89301 7.78547 2.5503 13.0884C2.48323 14.1262 2.48323 15.2008 2.5503 16.2386C2.67512 18.17 3.52929 19.9583 4.53488 21.4683C5.11876 22.5254 4.73343 23.8448 4.12527 24.9973C3.68676 25.8282 3.46751 26.2437 3.64355 26.5439C3.81959 26.844 4.21282 26.8536 4.99928 26.8727C6.55458 26.9106 7.60336 26.4697 8.43585 25.8558C8.908 25.5076 9.14408 25.3335 9.3068 25.3135C9.4695 25.2935 9.78971 25.4254 10.43 25.6891C11.0055 25.9261 11.6737 26.0724 12.2867 26.1132C14.067 26.2315 15.9294 26.2317 17.7133 26.1132Z" stroke="#FF5757" stroke-width="1.5" stroke-linejoin="round"/>
</svg>
