<svg width="20" height="21" viewBox="0 0 20 21" fill="none" xmlns="http://www.w3.org/2000/svg">
<g clip-path="url(#clip0_553_8350)">
<path fill-rule="evenodd" clip-rule="evenodd" d="M10.1667 6.5C10.5502 6.5 10.8611 6.81091 10.8611 7.19444L10.8611 9.97222L13.6389 9.97222C14.0224 9.97222 14.3333 10.2831 14.3333 10.6667C14.3333 11.0502 14.0224 11.3611 13.6389 11.3611H10.8611V14.1389C10.8611 14.5224 10.5502 14.8333 10.1667 14.8333C9.78314 14.8333 9.47222 14.5224 9.47222 14.1389L9.47222 11.3611H6.69444C6.31091 11.3611 6 11.0502 6 10.6667C6 10.2831 6.31091 9.97222 6.69444 9.97222H9.47222L9.47222 7.19444C9.47222 6.81091 9.78313 6.5 10.1667 6.5Z" fill="#FF5757"/>
</g>
<rect x="0.5" y="1" width="19" height="19" rx="4.5" stroke="#FF5757"/>
<defs>
<clipPath id="clip0_553_8350">
<rect y="0.5" width="20" height="20" rx="5" fill="white"/>
</clipPath>
</defs>
</svg>
