<svg width="21" height="21" viewBox="0 0 21 21" fill="none" xmlns="http://www.w3.org/2000/svg">
<path d="M18.7354 9.60623C18.7354 14.229 14.8173 17.9771 9.98535 17.9771C9.4172 17.9778 8.85069 17.9253 8.29259 17.8205C7.89089 17.7451 7.69003 17.7073 7.54981 17.7288C7.40959 17.7502 7.21088 17.8558 6.81346 18.0672C5.68922 18.6651 4.37831 18.8762 3.11757 18.6417C3.59675 18.0523 3.924 17.3452 4.06841 16.587C4.15591 16.1233 3.9391 15.6728 3.61438 15.3431C2.13952 13.8454 1.23535 11.8273 1.23535 9.60623C1.23535 4.98348 5.15341 1.23535 9.98535 1.23535C14.8173 1.23535 18.7354 4.98348 18.7354 9.60623Z" stroke="#FF5757" stroke-width="1.5" stroke-linejoin="round"/>
</svg>
