<svg width="30" height="30" viewBox="0 0 30 30" fill="none" xmlns="http://www.w3.org/2000/svg">
<path d="M24.375 6.875L23.6003 19.4064C23.4024 22.6081 23.3035 24.2089 22.5009 25.3598C22.1042 25.9289 21.5933 26.4091 21.0009 26.77C19.8026 27.5 18.1987 27.5 14.9909 27.5C11.7789 27.5 10.1729 27.5 8.97382 26.7687C8.381 26.4071 7.86999 25.926 7.47336 25.3561C6.67109 24.2032 6.57432 22.6001 6.38076 19.3939L5.625 6.875" stroke="#DB1E1E" stroke-width="1.5" stroke-linecap="round"/>
<path d="M26.25 6.875H3.75" stroke="#DB1E1E" stroke-width="1.5" stroke-linecap="round"/>
<path d="M20.0699 6.875L19.2166 5.11466C18.6497 3.94532 18.3663 3.36065 17.8774 2.99601C17.7689 2.91512 17.6541 2.84318 17.534 2.78088C16.9926 2.5 16.3429 2.5 15.0434 2.5C13.7113 2.5 13.0452 2.5 12.4949 2.79265C12.3729 2.85751 12.2565 2.93237 12.1469 3.01646C11.6523 3.39588 11.376 4.00194 10.8235 5.21407L10.0664 6.875" stroke="#DB1E1E" stroke-width="1.5" stroke-linecap="round"/>
<path d="M11.875 20.625L11.875 13.125" stroke="#DB1E1E" stroke-width="1.5" stroke-linecap="round"/>
<path d="M18.125 20.625L18.125 13.125" stroke="#DB1E1E" stroke-width="1.5" stroke-linecap="round"/>
</svg>
