<svg width="24" height="24" viewBox="0 0 24 24" fill="none" xmlns="http://www.w3.org/2000/svg">
<path d="M20.6667 6.91667H15.6667M7.33333 6.91667H4M20.6667 16.0833H17.3333M9 16.0833H4M10.6667 9.83333C11.0497 9.83333 11.429 9.75789 11.7828 9.61132C12.1367 9.46474 12.4582 9.2499 12.7291 8.97906C12.9999 8.70822 13.2147 8.38669 13.3613 8.03283C13.5079 7.67896 13.5833 7.29969 13.5833 6.91667C13.5833 6.53364 13.5079 6.15437 13.3613 5.80051C13.2147 5.44664 12.9999 5.12511 12.7291 4.85427C12.4582 4.58343 12.1367 4.36859 11.7828 4.22202C11.429 4.07544 11.0497 4 10.6667 4C9.89312 4 9.15125 4.30729 8.60427 4.85427C8.05729 5.40125 7.75 6.14312 7.75 6.91667C7.75 7.69021 8.05729 8.43208 8.60427 8.97906C9.15125 9.52604 9.89312 9.83333 10.6667 9.83333V9.83333ZM14 19C14.7735 19 15.5154 18.6927 16.0624 18.1457C16.6094 17.5987 16.9167 16.8569 16.9167 16.0833C16.9167 15.3098 16.6094 14.5679 16.0624 14.0209C15.5154 13.474 14.7735 13.1667 14 13.1667C13.2265 13.1667 12.4846 13.474 11.9376 14.0209C11.3906 14.5679 11.0833 15.3098 11.0833 16.0833C11.0833 16.8569 11.3906 17.5987 11.9376 18.1457C12.4846 18.6927 13.2265 19 14 19V19Z" stroke="#FF5757" stroke-width="2.5" stroke-miterlimit="10" stroke-linecap="round" stroke-linejoin="round"/>
</svg>
