<svg width="18" height="10" viewBox="0 0 18 10" fill="none" xmlns="http://www.w3.org/2000/svg">
<path fill-rule="evenodd" clip-rule="evenodd" d="M2.25 3.75C3.07843 3.75 3.75 3.07843 3.75 2.25C3.75 1.42157 3.07843 0.75 2.25 0.75C1.42157 0.75 0.75 1.42157 0.75 2.25C0.75 3.07843 1.42157 3.75 2.25 3.75ZM9 3.75C9.82843 3.75 10.5 3.07843 10.5 2.25C10.5 1.42157 9.82843 0.75 9 0.75C8.17157 0.75 7.5 1.42157 7.5 2.25C7.5 3.07843 8.17157 3.75 9 3.75ZM17.25 2.25C17.25 3.07843 16.5784 3.75 15.75 3.75C14.9216 3.75 14.25 3.07843 14.25 2.25C14.25 1.42157 14.9216 0.75 15.75 0.75C16.5784 0.75 17.25 1.42157 17.25 2.25ZM2.25 9.25C3.07843 9.25 3.75 8.57843 3.75 7.75C3.75 6.92157 3.07843 6.25 2.25 6.25C1.42157 6.25 0.75 6.92157 0.75 7.75C0.75 8.57843 1.42157 9.25 2.25 9.25ZM10.5 7.75C10.5 8.57843 9.82843 9.25 9 9.25C8.17157 9.25 7.5 8.57843 7.5 7.75C7.5 6.92157 8.17157 6.25 9 6.25C9.82843 6.25 10.5 6.92157 10.5 7.75ZM15.75 9.25C16.5784 9.25 17.25 8.57843 17.25 7.75C17.25 6.92157 16.5784 6.25 15.75 6.25C14.9216 6.25 14.25 6.92157 14.25 7.75C14.25 8.57843 14.9216 9.25 15.75 9.25Z" fill="#FF5757"/>
</svg>
