<svg width="31" height="31" viewBox="0 0 31 31" fill="none" xmlns="http://www.w3.org/2000/svg">
<path fill-rule="evenodd" clip-rule="evenodd" d="M18.1311 2.17852C20.0838 0.225897 23.2496 0.225893 25.2022 2.17852L28.8215 5.79781C30.7741 7.75043 30.7741 10.9163 28.8215 12.8689L11.1785 30.5118C10.866 30.8244 10.442 31 10 31H1.66667C0.746192 31 0 30.2538 0 29.3333V21C0 20.558 0.175595 20.1341 0.488155 19.8215L18.1311 2.17852ZM22.8452 4.53554C22.1943 3.88467 21.139 3.88466 20.4882 4.53554L19.0237 6L25 11.9763L26.4645 10.5118C27.1153 9.86097 27.1153 8.8057 26.4645 8.15483L22.8452 4.53554ZM22.643 14.3333L16.6667 8.35703L3.33333 21.6904V27.6667H9.30964L22.643 14.3333Z" fill="white"/>
</svg>
