<svg width="21" height="19" viewBox="0 0 21 19" fill="none" xmlns="http://www.w3.org/2000/svg">
<path d="M13.9791 4.43601C14.1972 4.27227 14.4709 4.15443 14.7618 4.12999M13.9791 4.43601L14.7618 4.12999M13.9791 4.43601C13.9609 4.44972 13.9421 4.46383 13.9229 4.47827C13.6762 4.66373 13.355 4.90513 13.0704 5.09146C12.9102 5.19636 12.6401 5.36551 12.3053 5.51683C12.0005 5.65452 11.3515 5.91399 10.4997 5.91399C9.64786 5.91399 8.99881 5.65452 8.69409 5.51683C8.35923 5.36551 8.08916 5.19636 7.92894 5.09146C7.64431 4.90513 7.32319 4.66374 7.07646 4.47828C7.05724 4.46383 7.03848 4.44972 7.02022 4.43601C6.80218 4.27227 6.52845 4.15443 6.23759 4.12999C5.99398 4.10952 5.53035 4.13305 4.81765 4.57023C4.59295 4.70806 3.90054 5.41341 4.12516 7.08819C4.3393 8.68489 5.4821 11.2187 9.06639 13.8717C9.48392 14.1807 9.77926 14.3988 10.0378 14.5772C10.2815 14.7455 10.4203 14.8276 10.4997 14.8692M13.9791 4.43601L10.4997 14.8692M14.7618 4.12999C15.0054 4.10952 15.469 4.13305 16.1817 4.57022C16.4064 4.70806 17.0988 5.41341 16.8742 7.08819C16.66 8.68489 15.5172 11.2187 11.933 13.8717C11.5154 14.1807 11.2201 14.3988 10.9616 14.5772C10.7178 14.7455 10.579 14.8276 10.4997 14.8692M14.7618 4.12999L10.4997 14.8692" stroke="#FF5757" stroke-width="8" stroke-linecap="round"/>
</svg>
