<svg width="24" height="24" viewBox="0 0 24 24" fill="none" xmlns="http://www.w3.org/2000/svg">
<path d="M12 16.05C12.2254 16.05 12.6203 16.05 13.0001 16.05C13.5523 16.05 14 16.4977 14 17.05V18.15C14 18.15 14.8126 18.15 15.3333 18.15C15.3333 17.8049 15.3333 17.2328 15.3333 16.65C15.3333 15.5455 14.4378 14.65 13.3333 14.65C12.8118 14.65 12.3098 14.65 12 14.65V16.05ZM12 14.65C11.6902 14.65 11.1882 14.65 10.6667 14.65C9.56216 14.65 8.66667 15.5455 8.66667 16.65C8.66667 17.2328 8.66667 17.8049 8.66667 18.15H9.33333H10C10 17.9034 10 17.4636 10 17.0499C10 16.4976 10.4477 16.05 10.9999 16.05C11.3797 16.05 11.7746 16.05 12 16.05V14.65Z" fill="#FF5757"/>
<path d="M10 18.15H9.33333H8.66667V20.1C8.66667 20.3761 8.44281 20.6 8.16667 20.6H6V20.6C4.52724 20.6 3.33333 19.4061 3.33333 17.9333V10.5561C3.33333 10.2664 3.45896 9.99094 3.67771 9.80101L10.5941 3.79569C11.3964 3.09908 12.5926 3.11147 13.3803 3.82455L20.3378 10.1231C20.5472 10.3126 20.6667 10.5819 20.6667 10.8644V17.6C20.6667 19.2569 19.3235 20.6 17.6667 20.6H15.8333C15.5572 20.6 15.3333 20.3761 15.3333 20.1V18.15H14V20.5C14 21.3284 14.6716 22 15.5 22H18C20.2091 22 22 20.2091 22 18V10.8207C22 10.2508 21.7569 9.70803 21.3317 9.32857L13.9573 2.74689C12.8365 1.74657 11.1486 1.72949 10.0078 2.70695L2.69872 8.96937C2.25524 9.34933 2 9.90415 2 10.4881V18C2 20.2091 3.79086 22 6 22H8.5C9.32843 22 10 21.3284 10 20.5V18.15Z" fill="#FF5757"/>
</svg>
