<svg width="21" height="19" viewBox="0 0 21 19" fill="none" xmlns="http://www.w3.org/2000/svg">
<path d="M12.0275 1.83723C13.2826 0.894672 15.387 0.270029 17.881 1.79988C19.4125 2.73928 20.4555 4.83522 20.0953 7.52021C19.7372 10.1906 17.9738 13.4439 13.8665 16.484C12.2199 17.7027 11.6102 18.125 10.4997 18.125C9.38916 18.125 8.77947 17.7027 7.13288 16.484C3.02555 13.4439 1.26214 10.1906 0.904 7.52021C0.543893 4.83522 1.58688 2.73928 3.11832 1.79988C5.61238 0.270029 7.71674 0.894672 8.97185 1.83723L8.99294 1.85307C9.2752 2.06506 9.51643 2.24622 9.70909 2.37236C9.80909 2.43783 9.91893 2.5039 10.0324 2.55517C10.1402 2.60389 10.3041 2.66399 10.4997 2.66399C10.6953 2.66399 10.8591 2.60389 10.9669 2.55517C11.0804 2.5039 11.1903 2.43783 11.2903 2.37236C11.4829 2.24621 11.7242 2.06504 12.0065 1.85304L12.0275 1.83723Z" stroke="#FF5757" stroke-width="1.5" stroke-linecap="round"/>
</svg>
