<svg width="25" height="25" viewBox="0 0 25 25" fill="none" xmlns="http://www.w3.org/2000/svg">
<path d="M14.0275 4.83723C15.2826 3.89467 17.387 3.27003 19.881 4.79988C21.4125 5.73928 22.4555 7.83522 22.0953 10.5202C21.7372 13.1906 19.9738 16.4439 15.8665 19.484C14.2199 20.7027 13.6102 21.125 12.4997 21.125C11.3892 21.125 10.7795 20.7027 9.13288 19.484C5.02555 16.4439 3.26214 13.1906 2.904 10.5202C2.54389 7.83522 3.58688 5.73928 5.11832 4.79988C7.61238 3.27003 9.71674 3.89467 10.9718 4.83723L10.9929 4.85307C11.2752 5.06506 11.5164 5.24622 11.7091 5.37236C11.8091 5.43783 11.9189 5.5039 12.0324 5.55517C12.1402 5.60389 12.3041 5.66399 12.4997 5.66399C12.6953 5.66399 12.8591 5.60389 12.9669 5.55517C13.0804 5.5039 13.1903 5.43783 13.2903 5.37236C13.4829 5.24621 13.7242 5.06504 14.0065 4.85304L14.0275 4.83723Z" stroke="#FF5757" stroke-width="1.5" stroke-linecap="round"/>
</svg>
