<svg width="26" height="26" viewBox="0 0 26 26" fill="none" xmlns="http://www.w3.org/2000/svg">
<path d="M9.66466 11.5529L9.8802 11.3374C11.9414 9.27621 15.2832 9.27621 17.3444 11.3374C19.4056 13.3986 19.4056 16.7404 17.3444 18.8016L14.3587 21.7873C12.2975 23.8485 8.9557 23.8485 6.89452 21.7873C4.83334 19.7261 4.83334 16.3843 6.89452 14.3231L7.37821 13.8394" stroke="white" stroke-width="2" stroke-linecap="round"/>
<path d="M17.9027 11.9938L18.3864 11.5101C20.4476 9.44891 20.4476 6.10707 18.3864 4.04589C16.3252 1.9847 12.9834 1.9847 10.9222 4.04589L7.93651 7.03157C5.87533 9.09275 5.87533 12.4346 7.93651 14.4958C9.9977 16.557 13.3395 16.557 15.4007 14.4958L15.6163 14.2802" stroke="white" stroke-width="2" stroke-linecap="round"/>
</svg>
