<svg width="30" height="30" viewBox="0 0 30 30" fill="none" xmlns="http://www.w3.org/2000/svg">
<path d="M13.8753 3.75C9.31321 3.75822 6.92428 3.87022 5.39757 5.39692C3.75 7.04449 3.75 9.69622 3.75 14.9997C3.75 20.3031 3.75 22.9549 5.39757 24.6024C7.04514 26.25 9.69687 26.25 15.0003 26.25C20.3038 26.25 22.9555 26.25 24.6031 24.6024C26.1298 23.0757 26.2418 20.6868 26.25 16.1247" stroke="#FF5757" stroke-width="1.5" stroke-linecap="round" stroke-linejoin="round"/>
<path d="M26.2069 4.9065C26.5004 4.61426 26.5015 4.13939 26.2092 3.84585C25.917 3.5523 25.4421 3.55125 25.1486 3.8435L26.2069 4.9065ZM13.2208 15.7185C12.9273 16.0107 12.9263 16.4856 13.2185 16.7792C13.5107 17.0727 13.9856 17.0737 14.2792 16.7815L13.2208 15.7185ZM25.0356 4.03383L24.9048 4.77234L25.0356 4.03383ZM20 3C19.5857 3.00004 19.25 3.33585 19.25 3.75007C19.2501 4.16428 19.5859 4.50004 20.0001 4.5L20 3ZM25.5 10C25.5 10.4142 25.8358 10.75 26.25 10.75C26.6642 10.75 27 10.4142 27 10H25.5ZM25.9662 4.96468L26.7047 4.83403V4.83403L25.9662 4.96468ZM25.1486 3.8435L13.2208 15.7185L14.2792 16.7815L26.2069 4.9065L25.1486 3.8435ZM25.1664 3.29532C24.3051 3.14278 22.9965 3.07112 21.9413 3.03579C21.4056 3.01785 20.9212 3.00891 20.5708 3.00445C20.3954 3.00222 20.2533 3.00111 20.1548 3.00055C20.1056 3.00028 20.0672 3.00014 20.0409 3.00007C20.0278 3.00003 20.0177 3.00002 20.0108 3.00001C20.0074 3 20.0048 3 20.0029 3C20.002 3 20.0013 3 20.0008 3C20.0006 3 20.0004 3 20.0002 3C20.0002 3 20.0001 3 20.0001 3C20 3 20 3 20 3.75C20.0001 4.5 20.0001 4.5 20.0001 4.5C20.0001 4.5 20.0001 4.5 20.0001 4.5C20.0002 4.5 20.0003 4.5 20.0005 4.5C20.0008 4.5 20.0013 4.5 20.0021 4.5C20.0036 4.5 20.0059 4.5 20.009 4.50001C20.0152 4.50001 20.0246 4.50003 20.037 4.50006C20.0618 4.50013 20.0987 4.50026 20.1464 4.50053C20.2418 4.50107 20.3803 4.50215 20.5517 4.50433C20.8947 4.5087 21.3684 4.51744 21.8911 4.53495C22.9526 4.57049 24.1618 4.64075 24.9048 4.77234L25.1664 3.29532ZM26.25 10C27 10 27 9.99996 27 9.9999C27 9.99986 27 9.99979 27 9.99972C27 9.99958 27 9.99938 27 9.99913C27 9.99863 27 9.99793 27 9.99702C27 9.9952 27 9.99256 27 9.98912C27 9.98224 27 9.97216 26.9999 9.95904C26.9999 9.93281 26.9997 9.89442 26.9995 9.84515C26.9989 9.74664 26.9978 9.60457 26.9955 9.42924C26.991 9.07882 26.9821 8.59444 26.9641 8.05882C26.9288 7.0037 26.8571 5.69523 26.7047 4.83403L25.2277 5.09534C25.3591 5.83842 25.4294 7.0476 25.465 8.10908C25.4825 8.63175 25.4913 9.1054 25.4956 9.44843C25.4978 9.61983 25.4989 9.75834 25.4995 9.85373C25.4998 9.90141 25.4999 9.9383 25.5 9.96311C25.5 9.97552 25.5 9.9849 25.5 9.9911C25.5 9.9942 25.5 9.99651 25.5 9.998C25.5 9.99874 25.5 9.99928 25.5 9.99962C25.5 9.99979 25.5 9.9999 25.5 9.99996C25.5 10 25.5 10 25.5 10C25.5 10 25.5 10 26.25 10ZM24.9048 4.77234C25.0838 4.80403 25.196 4.91614 25.2277 5.09534L26.7047 4.83403C26.5633 4.03481 25.9658 3.4369 25.1664 3.29532L24.9048 4.77234Z" fill="#FF5757"/>
</svg>
