<svg width="18" height="16" viewBox="0 0 18 16" fill="none" xmlns="http://www.w3.org/2000/svg">
<path fill-rule="evenodd" clip-rule="evenodd" d="M3.29289 0.292893C3.68342 -0.0976311 4.31658 -0.0976311 4.70711 0.292893C5.09763 0.683417 5.09763 1.31658 4.70711 1.70711L2.70711 3.70711C2.31658 4.09763 1.68342 4.09763 1.29289 3.70711L0.292893 2.70711C-0.097631 2.31658 -0.0976311 1.68342 0.292893 1.29289C0.683417 0.902369 1.31658 0.902369 1.70711 1.29289L2 1.58579L3.29289 0.292893ZM6 2C6 1.44772 6.44772 1 7 1H17C17.5523 1 18 1.44772 18 2C18 2.55228 17.5523 3 17 3H7C6.44772 3 6 2.55228 6 2ZM3.29289 6.29289C3.68342 5.90237 4.31658 5.90237 4.70711 6.29289C5.09763 6.68342 5.09763 7.31658 4.70711 7.70711L2.70711 9.70711C2.31658 10.0976 1.68342 10.0976 1.29289 9.70711L0.292893 8.70711C-0.097631 8.31658 -0.0976311 7.68342 0.292893 7.29289C0.683417 6.90237 1.31658 6.90237 1.70711 7.29289L2 7.58579L3.29289 6.29289ZM6 8C6 7.44772 6.44772 7 7 7H17C17.5523 7 18 7.44772 18 8C18 8.55228 17.5523 9 17 9H7C6.44772 9 6 8.55228 6 8ZM4.70711 12.2929C5.09763 12.6834 5.09763 13.3166 4.70711 13.7071L2.70711 15.7071C2.51957 15.8946 2.26522 16 2 16C1.73478 16 1.48043 15.8946 1.29289 15.7071L0.292893 14.7071C-0.0976311 14.3166 -0.0976311 13.6834 0.292893 13.2929C0.683417 12.9024 1.31658 12.9024 1.70711 13.2929L2 13.5858L3.29289 12.2929C3.68342 11.9024 4.31658 11.9024 4.70711 12.2929ZM6 14C6 13.4477 6.44772 13 7 13H17C17.5523 13 18 13.4477 18 14C18 14.5523 17.5523 15 17 15H7C6.44772 15 6 14.5523 6 14Z" fill="white"/>
</svg>
