<svg width="30" height="30" viewBox="0 0 30 30" fill="none" xmlns="http://www.w3.org/2000/svg">
<path fill-rule="evenodd" clip-rule="evenodd" d="M3.75 7.5C3.75 6.80964 4.30964 6.25 5 6.25H6.25C6.94036 6.25 7.5 6.80964 7.5 7.5C7.5 8.19036 6.94036 8.75 6.25 8.75H5C4.30964 8.75 3.75 8.19036 3.75 7.5ZM10 7.5C10 6.80964 10.5596 6.25 11.25 6.25H25C25.6904 6.25 26.25 6.80964 26.25 7.5C26.25 8.19036 25.6904 8.75 25 8.75H11.25C10.5596 8.75 10 8.19036 10 7.5ZM3.75 15C3.75 14.3096 4.30964 13.75 5 13.75H6.25C6.94036 13.75 7.5 14.3096 7.5 15C7.5 15.6904 6.94036 16.25 6.25 16.25H5C4.30964 16.25 3.75 15.6904 3.75 15ZM10 15C10 14.3096 10.5596 13.75 11.25 13.75H25C25.6904 13.75 26.25 14.3096 26.25 15C26.25 15.6904 25.6904 16.25 25 16.25H11.25C10.5596 16.25 10 15.6904 10 15ZM3.75 22.5C3.75 21.8096 4.30964 21.25 5 21.25H6.25C6.94036 21.25 7.5 21.8096 7.5 22.5C7.5 23.1904 6.94036 23.75 6.25 23.75H5C4.30964 23.75 3.75 23.1904 3.75 22.5ZM10 22.5C10 21.8096 10.5596 21.25 11.25 21.25H25C25.6904 21.25 26.25 21.8096 26.25 22.5C26.25 23.1904 25.6904 23.75 25 23.75H11.25C10.5596 23.75 10 23.1904 10 22.5Z" fill="#FF5757"/>
</svg>
