<svg width="34" height="29" viewBox="0 0 34 29" fill="none" xmlns="http://www.w3.org/2000/svg">
    <path fill-rule="evenodd" clip-rule="evenodd"
        d="M0 1.70588C0 0.763749 0.761116 0 1.7 0H22.1C23.0389 0 23.8 0.763749 23.8 1.70588C23.8 2.64802 23.0389 3.41176 22.1 3.41176H1.7C0.761116 3.41176 0 2.64802 0 1.70588ZM0 11.9412C0 10.999 0.761116 10.2353 1.7 10.2353H22.1C23.0389 10.2353 23.8 10.999 23.8 11.9412C23.8 12.8833 23.0389 13.6471 22.1 13.6471H1.7C0.761116 13.6471 0 12.8833 0 11.9412ZM27.2 15.3529C28.1389 15.3529 28.9 16.1167 28.9 17.0588V20.4706H32.3C33.2389 20.4706 34 21.2343 34 22.1765C34 23.1186 33.2389 23.8824 32.3 23.8824H28.9V27.2941C28.9 28.2362 28.1389 29 27.2 29C26.2611 29 25.5 28.2362 25.5 27.2941V23.8824H22.1C21.1611 23.8824 20.4 23.1186 20.4 22.1765C20.4 21.2343 21.1611 20.4706 22.1 20.4706H25.5V17.0588C25.5 16.1167 26.2611 15.3529 27.2 15.3529ZM0 22.1765C0 21.2343 0.761116 20.4706 1.7 20.4706H15.3C16.2389 20.4706 17 21.2343 17 22.1765C17 23.1186 16.2389 23.8824 15.3 23.8824H1.7C0.761116 23.8824 0 23.1186 0 22.1765Z"
        fill="white" />
</svg>
