<svg width="34" height="34" viewBox="0 0 34 34" fill="none" xmlns="http://www.w3.org/2000/svg">
    <path fill-rule="evenodd" clip-rule="evenodd"
        d="M21.7975 1.51183C23.7501 -0.44079 26.9159 -0.440794 28.8685 1.51183L32.4878 5.13112C34.4405 7.08374 34.4405 10.2496 32.4878 12.2022L19.8449 24.8452C19.5323 25.1577 19.1084 25.3333 18.6663 25.3333H10.333C9.41253 25.3333 8.66634 24.5871 8.66634 23.6667V15.3333C8.66634 14.8913 8.84194 14.4674 9.1545 14.1548L21.7975 1.51183ZM26.5115 3.86885C25.8606 3.21798 24.8054 3.21798 24.1545 3.86885L22.69 5.33332L28.6663 11.3096L30.1308 9.84516C30.7817 9.19429 30.7817 8.13901 30.1308 7.48814L26.5115 3.86885ZM26.3093 13.6667L20.333 7.69034L11.9997 16.0237V22H17.976L26.3093 13.6667ZM8.66634 3.66665C5.90492 3.66665 3.66634 5.90523 3.66634 8.66665V25.3333C3.66634 28.0947 5.90492 30.3333 8.66634 30.3333H25.333C28.0944 30.3333 30.333 28.0947 30.333 25.3333V20.3333C30.333 19.4128 31.0792 18.6667 31.9997 18.6667C32.9202 18.6667 33.6663 19.4128 33.6663 20.3333V25.3333C33.6663 29.9357 29.9354 33.6666 25.333 33.6666H8.66634C4.06397 33.6666 0.333008 29.9357 0.333008 25.3333V8.66665C0.333008 4.06428 4.06397 0.333317 8.66634 0.333317H13.6663C14.5868 0.333317 15.333 1.07951 15.333 1.99998C15.333 2.92046 14.5868 3.66665 13.6663 3.66665H8.66634Z"
        fill="white" />
</svg>
