<svg width="30" height="30" viewBox="0 0 30 30" fill="none" xmlns="http://www.w3.org/2000/svg">
<path d="M27.5 14.4584C27.5 21.0623 21.9028 26.4168 15 26.4168C14.1884 26.4178 13.3791 26.3428 12.5818 26.1931C12.0079 26.0853 11.721 26.0314 11.5207 26.062C11.3203 26.0926 11.0365 26.2436 10.4687 26.5455C8.86267 27.3996 6.98994 27.7012 5.18889 27.3662C5.87343 26.5242 6.34093 25.514 6.54722 24.431C6.67222 23.7685 6.3625 23.125 5.89861 22.6539C3.79167 20.5144 2.5 17.6314 2.5 14.4584C2.5 7.85446 8.09722 2.5 15 2.5C21.9028 2.5 27.5 7.85446 27.5 14.4584Z" stroke="#FF5757" stroke-width="1.5" stroke-linejoin="round"/>
<path d="M14.9944 15H15.0056M19.9888 15H20M10 15H10.0112" stroke="#FF5757" stroke-width="2" stroke-linecap="round" stroke-linejoin="round"/>
</svg>
