<svg width="20" height="20" viewBox="0 0 20 20" fill="none" xmlns="http://www.w3.org/2000/svg">
<mask id="path-1-inside-1_4049_5298" fill="white">
<path d="M12.1706 19.3585C16.3536 19.0658 19.6856 15.5087 19.9598 11.043C20.0134 10.1691 20.0134 9.26413 19.9598 8.39024C19.6856 3.92461 16.3536 0.367508 12.1706 0.0748154C10.7435 -0.0250403 9.25357 -0.0248366 7.8294 0.0748154C3.64639 0.367508 0.314409 3.92461 0.0402399 8.39024C-0.0134133 9.26413 -0.0134133 10.1691 0.0402399 11.043C0.140095 12.6695 0.823432 14.1754 1.62791 15.447C2.09501 16.3372 1.78674 17.4483 1.30021 18.4188C0.94941 19.1185 0.774009 19.4684 0.914842 19.7212C1.05568 19.9739 1.37026 19.982 1.99943 19.9981C3.24367 20.03 4.08268 19.6587 4.74868 19.1417C5.1264 18.8485 5.31527 18.7019 5.44544 18.6851C5.5756 18.6682 5.83177 18.7793 6.34401 19.0014C6.8044 19.201 7.33896 19.3241 7.8294 19.3585C9.25357 19.4581 10.7435 19.4583 12.1706 19.3585Z"/>
</mask>
<path d="M6 9.4C4.01177 9.4 2.4 11.0118 2.4 13C2.4 14.9882 4.01177 16.6 6 16.6V9.4ZM14.75 16.6C16.7382 16.6 18.35 14.9882 18.35 13C18.35 11.0118 16.7382 9.4 14.75 9.4V16.6ZM6 3.15C4.01177 3.15 2.4 4.76177 2.4 6.75C2.4 8.73823 4.01177 10.35 6 10.35V3.15ZM10.375 10.35C12.3632 10.35 13.975 8.73823 13.975 6.75C13.975 4.76177 12.3632 3.15 10.375 3.15V10.35ZM6 16.6H14.75V9.4H6V16.6ZM6 10.35H10.375V3.15H6V10.35ZM19.9598 11.043L12.7733 10.6018L12.7733 10.6018L19.9598 11.043ZM12.1706 19.3585L12.6732 26.5409L12.6732 26.5409L12.1706 19.3585ZM12.1706 0.0748154L12.6732 -7.10762L12.1706 0.0748154ZM19.9598 8.39024L12.7733 8.83145L12.7733 8.83146L19.9598 8.39024ZM7.8294 0.0748154L7.32683 -7.10762L7.8294 0.0748154ZM0.0402399 8.39024L7.22671 8.83145L0.0402399 8.39024ZM7.8294 19.3585L8.33196 12.176L8.33196 12.176L7.8294 19.3585ZM0.0402399 11.043L-7.14623 11.4842L-7.14623 11.4842L0.0402399 11.043ZM1.62791 15.447L8.00354 12.1016C7.91335 11.9297 7.81624 11.7616 7.71246 11.5975L1.62791 15.447ZM6.34401 19.0014L9.20794 12.3955L9.2079 12.3954L6.34401 19.0014ZM4.74868 19.1417L9.16355 24.8293L9.16356 24.8293L4.74868 19.1417ZM5.44544 18.6851L4.52117 11.5446L4.52109 11.5446L5.44544 18.6851ZM1.30021 18.4188L-5.13627 15.192L1.30021 18.4188ZM1.99943 19.9981L1.81499 27.1957L1.81499 27.1957L1.99943 19.9981ZM12.7733 10.6018C12.7388 11.1632 12.5195 11.5837 12.2763 11.8434C12.0383 12.0975 11.8199 12.1654 11.668 12.176L12.6732 26.5409C20.8156 25.9712 26.6733 19.1878 27.1462 11.4842L12.7733 10.6018ZM11.668 7.25725C11.8199 7.26788 12.0383 7.33578 12.2763 7.58985C12.5195 7.84955 12.7388 8.27012 12.7733 8.83145L27.1462 7.94902C26.6733 0.245428 20.8156 -6.53789 12.6732 -7.10762L11.668 7.25725ZM7.32683 -7.10762C-0.81555 -6.53789 -6.67326 0.245426 -7.14623 7.94902L7.22671 8.83145C7.26117 8.27012 7.48047 7.84955 7.72374 7.58985C7.96172 7.33578 8.18011 7.26788 8.33196 7.25725L7.32683 -7.10762ZM8.33196 7.25725C9.42184 7.18099 10.5759 7.18084 11.668 7.25725L12.6732 -7.10762C10.9111 -7.23092 9.0853 -7.23067 7.32683 -7.10762L8.33196 7.25725ZM7.32683 26.5409C9.0853 26.6639 10.9111 26.6642 12.6732 26.5409L11.668 12.176C10.5759 12.2524 9.42183 12.2523 8.33196 12.176L7.32683 26.5409ZM12.7733 8.83146C12.8089 9.41148 12.8089 10.0218 12.7733 10.6018L27.1462 11.4843C27.2179 10.3165 27.2179 9.11678 27.1462 7.94902L12.7733 8.83146ZM-7.14623 7.94902C-7.21792 9.11678 -7.21792 10.3165 -7.14623 11.4842L7.22671 10.6018C7.1911 10.0218 7.1911 9.41148 7.22671 8.83145L-7.14623 7.94902ZM7.71246 11.5975C7.4974 11.2576 7.36542 10.9899 7.2907 10.7954C7.21758 10.6051 7.2234 10.5479 7.22671 10.6018L-7.14623 11.4842C-6.94262 14.8006 -5.59246 17.5011 -4.45665 19.2964L7.71246 11.5975ZM8.33196 12.176C8.493 12.1873 8.62561 12.2097 8.74097 12.2372C8.85497 12.2643 9.01183 12.3104 9.20794 12.3955L3.48007 25.6072C4.74219 26.1544 6.08193 26.4538 7.32683 26.5409L8.33196 12.176ZM7.73669 21.6455C8.34778 20.4265 10.2345 16.3534 8.00354 12.1016L-4.74773 18.7923C-5.43056 17.4909 -5.37488 16.3233 -5.29254 15.7946C-5.21632 15.3052 -5.08256 15.0849 -5.13627 15.192L7.73669 21.6455ZM0.33381 13.4541C0.515369 13.3132 0.831986 13.1099 1.26016 12.9634C1.68898 12.8167 2.02685 12.7964 2.18386 12.8005L1.81499 27.1957C4.84505 27.2734 7.28645 26.2864 9.16355 24.8293L0.33381 13.4541ZM9.2079 12.3954C9.0343 12.3202 8.62465 12.1397 8.25038 12.0012C8.05028 11.9271 7.66043 11.7887 7.17435 11.6775C6.74613 11.5795 5.75938 11.3844 4.52117 11.5446L6.3697 25.8255C5.19657 25.9773 4.29066 25.7898 3.96309 25.7148C3.57765 25.6267 3.30827 25.5267 3.25251 25.506C3.16693 25.4744 3.14147 25.4605 3.48012 25.6073L9.2079 12.3954ZM9.16356 24.8293C9.43135 24.6215 9.36249 24.6792 9.24325 24.7604C9.16455 24.814 8.90309 24.9903 8.5224 25.1782C8.15556 25.3594 7.40092 25.692 6.36979 25.8255L4.52109 11.5446C2.58849 11.7948 1.25136 12.7809 1.13653 12.8591C0.795884 13.0911 0.443734 13.3688 0.333795 13.4541L9.16356 24.8293ZM-5.13627 15.192C-5.21123 15.3416 -5.6264 16.1326 -5.89486 16.9236C-6.17159 17.739 -6.95486 20.3897 -5.37472 23.2256L7.2044 16.2167C8.64371 18.7998 7.87773 21.1493 7.74119 21.5516C7.64774 21.8269 7.56563 21.9929 7.5874 21.9466C7.60467 21.9099 7.63685 21.8446 7.73669 21.6455L-5.13627 15.192ZM2.18386 12.8005C1.99177 12.7955 1.98125 12.7945 2.00137 12.7957C2.01176 12.7963 2.30364 12.8102 2.71107 12.8932C3.12615 12.9778 3.93918 13.1869 4.84114 13.7445C5.83509 14.3589 6.64712 15.2165 7.2044 16.2167L-5.37472 23.2256C-3.91531 25.8449 -1.5205 26.727 -0.163057 27.0035C0.782195 27.196 1.77996 27.1948 1.81499 27.1957L2.18386 12.8005Z" fill="#FF5757" mask="url(#path-1-inside-1_4049_5298)"/>
<path d="M6 13.25H14.75M6 7H10.375" stroke="white" stroke-width="1.5" stroke-linecap="round" stroke-linejoin="round"/>
</svg>
