<svg width="30" height="29" viewBox="0 0 30 29" fill="none" xmlns="http://www.w3.org/2000/svg">
<path d="M15 3.60566C13.9645 3.60566 13.125 4.41284 13.125 5.40854C13.125 6.40425 13.9645 7.21143 15 7.21143C16.0355 7.21143 16.875 6.40425 16.875 5.40854C16.875 4.41284 16.0355 3.60566 15 3.60566Z" stroke="#FF5757" stroke-width="1.5"/>
<path d="M15 12.6198C13.9645 12.6198 13.125 13.427 13.125 14.4227C13.125 15.4184 13.9645 16.2256 15 16.2256C16.0355 16.2256 16.875 15.4184 16.875 14.4227C16.875 13.427 16.0355 12.6198 15 12.6198Z" stroke="#FF5757" stroke-width="1.5"/>
<path d="M15 21.6345C13.9645 21.6345 13.125 22.4416 13.125 23.4373C13.125 24.4331 13.9645 25.2402 15 25.2402C16.0355 25.2402 16.875 24.4331 16.875 23.4373C16.875 22.4416 16.0355 21.6345 15 21.6345Z" stroke="#FF5757" stroke-width="1.5"/>
</svg>
