<svg width="18" height="6" viewBox="0 0 18 6" fill="none" xmlns="http://www.w3.org/2000/svg">
<path d="M17.25 3.0625C17.25 2.23407 16.6344 1.5625 15.875 1.5625C15.1156 1.5625 14.5 2.23407 14.5 3.0625C14.5 3.89093 15.1156 4.5625 15.875 4.5625C16.6344 4.5625 17.25 3.89093 17.25 3.0625Z" stroke="#FF5757" stroke-width="1.5"/>
<path d="M10.375 3.0625C10.375 2.23407 9.75939 1.5625 9 1.5625C8.24061 1.5625 7.625 2.23407 7.625 3.0625C7.625 3.89093 8.24061 4.5625 9 4.5625C9.75939 4.5625 10.375 3.89093 10.375 3.0625Z" stroke="#FF5757" stroke-width="1.5"/>
<path d="M3.5 3.0625C3.5 2.23407 2.88439 1.5625 2.125 1.5625C1.36561 1.5625 0.75 2.23407 0.75 3.0625C0.75 3.89093 1.36561 4.5625 2.125 4.5625C2.88439 4.5625 3.5 3.89093 3.5 3.0625Z" stroke="#FF5757" stroke-width="1.5"/>
</svg>
