<svg width="20" height="22" viewBox="0 0 20 22" fill="none" xmlns="http://www.w3.org/2000/svg">
<path d="M8.80709 21.1358C10.402 21.1358 11.7363 19.9988 12.0426 18.4938H5.57153C5.87808 19.9988 7.21229 21.1358 8.80709 21.1358Z" fill="#FF5757"/>
<path d="M14.9823 10.5671C14.9788 10.5671 14.9752 10.5679 14.9717 10.5679C11.5732 10.5679 8.80709 7.80258 8.80709 4.40335C8.80709 3.46889 9.02204 2.58554 9.39631 1.79121C9.20249 1.77282 9.00608 1.76138 8.80709 1.76138C5.40255 1.76138 2.64253 4.52123 2.64253 7.92594V10.3812C2.64253 12.124 1.87899 13.7691 0.539458 14.9016C0.0929466 15.283 -0.105234 15.8906 0.0550521 16.4833C0.241784 17.1729 0.923403 17.6132 1.63856 17.6132H15.9713C16.7216 17.6132 17.4288 17.1271 17.5811 16.3917C17.6991 15.8228 17.4966 15.2547 17.0554 14.884C15.7749 13.8106 15.0342 12.2332 14.9823 10.5671Z" fill="#FF5757"/>
<path d="M19.375 4.40335C19.375 6.83521 17.4037 8.80654 14.9717 8.80654C12.5398 8.80654 10.5685 6.83521 10.5685 4.40335C10.5685 1.97149 12.5398 0 14.9717 0C17.4037 0 19.375 1.97149 19.375 4.40335Z" fill="white"/>
</svg>
