<svg width="30" height="30" viewBox="0 0 30 30" fill="none" xmlns="http://www.w3.org/2000/svg">
<path d="M22.5 22.7092C17.1621 24.2985 10.4908 24.0677 5.54007 22.0168C4.085 21.4141 2.89659 20.2046 3.1624 18.4621C3.32577 17.3912 4.13355 16.4994 4.73201 15.6287C5.5159 14.4741 5.59379 13.2148 5.59391 11.875C5.59391 10.1513 6.06063 8.2627 6.875 6.875" stroke="#FF5757" stroke-width="1.5" stroke-linecap="round" stroke-linejoin="round"/>
<path d="M9.375 4.36038C10.9425 3.1919 12.8879 2.5 14.9953 2.5C20.1858 2.5 24.3936 6.69733 24.3936 11.875C24.3937 13.2148 24.4715 14.4741 25.2547 15.6286C25.8527 16.4994 26.6598 17.3911 26.823 18.462C26.9736 19.4495 26.8028 19.9933 26.2359 20.625" stroke="#FF5757" stroke-width="1.5" stroke-linecap="round" stroke-linejoin="round"/>
<path d="M27.5 27.5L2.5 2.5" stroke="#FF5757" stroke-width="1.5" stroke-linecap="round"/>
<path d="M10 23.75C10.5731 25.9065 12.5944 27.5 15 27.5C17.4056 27.5 19.4269 25.9065 20 23.75" stroke="#FF5757" stroke-width="1.5" stroke-linecap="round" stroke-linejoin="round"/>
</svg>
