<svg width="18" height="21" viewBox="0 0 18 21" fill="none" xmlns="http://www.w3.org/2000/svg">
<path d="M8.80684 20.1356C10.4018 20.1356 11.736 18.9986 12.0424 17.4937H5.57129C5.87783 18.9986 7.21205 20.1356 8.80684 20.1356Z" fill="#FF5757"/>
<path d="M14.9823 9.56696C14.9788 9.56696 14.9752 9.56777 14.9717 9.56777C11.5732 9.56777 8.80709 6.80243 8.80709 3.40321C8.80709 2.46874 9.02204 1.5854 9.39631 0.791062C9.20249 0.772679 9.00608 0.76123 8.80709 0.76123C5.40255 0.76123 2.64253 3.52109 2.64253 6.92579V9.38104C2.64253 11.1239 1.87899 12.769 0.539458 13.9015C0.0929466 14.2828 -0.105234 14.8904 0.0550521 15.4832C0.241784 16.1727 0.923403 16.6131 1.63856 16.6131H15.9713C16.7216 16.6131 17.4288 16.1269 17.5811 15.3916C17.6991 14.8227 17.4966 14.2546 17.0554 13.8839C15.7749 12.8104 15.0342 11.233 14.9823 9.56696Z" fill="#FF5757"/>
<path d="M2.64758 9.5655C2.65113 9.5655 2.65468 9.56631 2.65823 9.56631C6.05665 9.56631 8.82279 6.80097 8.82279 3.40174C8.82279 2.46728 8.60784 1.58393 8.23357 0.789598C8.4274 0.771215 8.6238 0.759766 8.82279 0.759766C12.2273 0.759766 14.9874 3.51962 14.9874 6.92433V9.37957C14.9874 11.1224 15.7509 12.7675 17.0904 13.9C17.5369 14.2814 17.7351 14.889 17.5748 15.4817C17.3881 16.1713 16.7065 16.6116 15.9913 16.6116H1.65862C0.908303 16.6116 0.201044 16.1255 0.0488208 15.3901C-0.0692169 14.8212 0.133318 14.2531 0.574508 13.8824C1.85502 12.809 2.59566 11.2316 2.64758 9.5655Z" fill="#FF5757"/>
</svg>
