<svg width="21" height="23" viewBox="0 0 21 23" fill="none" xmlns="http://www.w3.org/2000/svg">
<path d="M2.97513 8.27941L3.72513 8.27948V8.27941H2.97513ZM18.0249 8.27941L17.2749 8.27941L17.2749 8.27948L18.0249 8.27941ZM18.0679 16.1542L18.3477 16.8501L18.3477 16.8501L18.0679 16.1542ZM2.93205 16.1542L3.21184 15.4584L3.21184 15.4584L2.93205 16.1542ZM18.7144 11.194L18.0998 11.6239L18.1023 11.6274L18.7144 11.194ZM19.9701 13.394L19.2292 13.5105L19.2292 13.5105L19.9701 13.394ZM2.28561 11.194L2.8977 11.6274L2.90017 11.6239L2.28561 11.194ZM1.02992 13.394L0.289018 13.2776L0.289018 13.2776L1.02992 13.394ZM7.96168 19.9089C7.63525 19.654 7.16392 19.7119 6.90894 20.0383C6.65396 20.3648 6.71189 20.8361 7.03832 21.0911L7.96168 19.9089ZM13.9617 21.0911C14.2881 20.8361 14.346 20.3648 14.0911 20.0383C13.8361 19.7119 13.3648 19.654 13.0383 19.9089L13.9617 21.0911ZM17.7882 15.4584C13.5049 17.1805 7.49506 17.1805 3.21184 15.4584L2.65227 16.8501C7.29456 18.7166 13.7054 18.7166 18.3477 16.8501L17.7882 15.4584ZM18.7749 8.27941C18.7749 3.82164 15.0464 0.25 10.5 0.25V1.75C14.2653 1.75 17.2749 4.69657 17.2749 8.27941H18.7749ZM3.72513 8.27941C3.72513 4.69657 6.7347 1.75 10.5 1.75V0.25C5.95355 0.25 2.22513 3.82164 2.22513 8.27941H3.72513ZM3.21184 15.4584C2.19102 15.0479 1.63777 14.3571 1.77083 13.5105L0.289018 13.2776C-0.00322866 15.137 1.34498 16.3245 2.65227 16.8501L3.21184 15.4584ZM18.3477 16.8501C19.655 16.3245 21.0032 15.137 20.711 13.2776L19.2292 13.5105C19.3622 14.3571 18.809 15.0479 17.7882 15.4584L18.3477 16.8501ZM19.329 10.7641C18.8461 10.0739 18.775 9.30737 18.7749 8.27935L17.2749 8.27948C17.275 9.33205 17.3284 10.5212 18.0998 11.6239L19.329 10.7641ZM2.90017 11.6239C3.67158 10.5212 3.72503 9.33205 3.72513 8.27948L2.22513 8.27935C2.22504 9.30737 2.15387 10.0739 1.67105 10.7641L2.90017 11.6239ZM1.67353 10.7606C1.56186 10.9183 1.4419 11.0749 1.30616 11.2556C1.17482 11.4304 1.03314 11.6221 0.900572 11.8237C0.637884 12.2232 0.378391 12.709 0.289018 13.2776L1.77083 13.5105C1.81214 13.2476 1.94111 12.9714 2.1539 12.6478C2.25907 12.4879 2.37688 12.3277 2.50545 12.1565C2.62961 11.9913 2.76998 11.8078 2.89769 11.6274L1.67353 10.7606ZM18.1023 11.6274C18.23 11.8078 18.3704 11.9913 18.4946 12.1565C18.6231 12.3277 18.7409 12.4879 18.8461 12.6478C19.0589 12.9714 19.1879 13.2476 19.2292 13.5105L20.711 13.2776C20.6216 12.709 20.3621 12.2232 20.0994 11.8237C19.9669 11.6221 19.8252 11.4304 19.6938 11.2556C19.5581 11.0749 19.4381 10.9183 19.3265 10.7606L18.1023 11.6274ZM10.5 20.75C9.51088 20.75 8.62292 20.4254 7.96168 19.9089L7.03832 21.0911C7.96935 21.8183 9.18405 22.25 10.5 22.25V20.75ZM13.0383 19.9089C12.3771 20.4254 11.4891 20.75 10.5 20.75V22.25C11.8159 22.25 13.0306 21.8183 13.9617 21.0911L13.0383 19.9089Z" fill="white"/>
</svg>
