<svg width="30" height="30" viewBox="0 0 30 30" fill="none" xmlns="http://www.w3.org/2000/svg">
<path d="M3.1624 17.9926C2.89659 19.6838 4.085 20.8577 5.54007 21.4428C11.1185 23.6857 18.8815 23.6857 24.4599 21.4428C25.915 20.8577 27.1034 19.6838 26.8376 17.9926C26.6742 16.9532 25.8665 16.0877 25.268 15.2425C24.4841 14.1219 24.4062 12.8996 24.4061 11.5993C24.4061 6.57388 20.1948 2.5 15 2.5C9.80516 2.5 5.59391 6.57388 5.59391 11.5993C5.59379 12.8996 5.5159 14.1219 4.73201 15.2425C4.13355 16.0877 3.32577 16.9532 3.1624 17.9926Z" stroke="#FF5757" stroke-width="1.5" stroke-linecap="round" stroke-linejoin="round"/>
<path d="M11.25 26.25C12.2452 27.0273 13.5593 27.5 15 27.5C16.4407 27.5 17.7548 27.0273 18.75 26.25" stroke="#FF5757" stroke-width="1.5" stroke-linecap="round" stroke-linejoin="round"/>
</svg>
