<svg width="25" height="25" viewBox="0 0 25 25" fill="none" xmlns="http://www.w3.org/2000/svg">
<path fill-rule="evenodd" clip-rule="evenodd" d="M0 6.25C0 2.79822 2.79822 0 6.25 0H18.75C22.2018 0 25 2.79822 25 6.25V18.75C25 22.2018 22.2018 25 18.75 25H6.25C2.79822 25 0 22.2018 0 18.75V6.25ZM6.25 2.5C4.17893 2.5 2.5 4.17893 2.5 6.25V18.75C2.5 20.8211 4.17893 22.5 6.25 22.5H18.75C20.8211 22.5 22.5 20.8211 22.5 18.75V6.25C22.5 4.17893 20.8211 2.5 18.75 2.5H6.25ZM7.5 12.5C7.5 11.8096 8.05964 11.25 8.75 11.25H16.25C16.9404 11.25 17.5 11.8096 17.5 12.5C17.5 13.1904 16.9404 13.75 16.25 13.75H8.75C8.05964 13.75 7.5 13.1904 7.5 12.5Z" fill="#FF5757"/>
</svg>
