<svg width="30" height="30" viewBox="0 0 30 30" fill="none" xmlns="http://www.w3.org/2000/svg">
    <path fill-rule="evenodd" clip-rule="evenodd"
        d="M17.9599 1.45064C19.8941 -0.483544 23.0301 -0.483548 24.9642 1.45064L28.5494 5.03576C30.4835 6.96994 30.4835 10.1059 28.5494 12.0401L11.073 29.5165C10.7634 29.8261 10.3434 30 9.90558 30H1.65093C0.739147 30 0 29.2609 0 28.3491V20.0944C0 19.6566 0.173937 19.2366 0.483546 18.927L17.9599 1.45064ZM22.6295 3.78541C21.9847 3.14068 20.9394 3.14068 20.2947 3.78541L18.8441 5.23605L24.764 11.1559L26.2146 9.70529C26.8593 9.06056 26.8593 8.01525 26.2146 7.37053L22.6295 3.78541ZM22.4292 13.4907L16.5093 7.57081L3.30186 20.7783V26.6981H9.22174L22.4292 13.4907Z"
        fill="white" />
</svg>
