<svg width="30" height="30" viewBox="0 0 30 30" fill="none" xmlns="http://www.w3.org/2000/svg">
<path d="M10 27.5V23.75C10 21.393 10 20.2145 10.7322 19.4822C11.4645 18.75 12.643 18.75 15 18.75C17.357 18.75 18.5355 18.75 19.2678 19.4822C20 20.2145 20 21.393 20 23.75V27.5" stroke="#FF5757" stroke-width="2" stroke-linejoin="round"/>
<path d="M12.5 8.75H17.5" stroke="#FF5757" stroke-width="2" stroke-linecap="round" stroke-linejoin="round"/>
<path d="M3.75 14.8231C3.75 9.10249 3.75 6.2422 5.48342 4.42993C5.54746 4.36298 5.61298 4.29746 5.67993 4.23342C7.4922 2.5 10.3525 2.5 16.0731 2.5C17.4288 2.5 18.0819 2.5047 18.7035 2.73671C19.3021 2.96012 19.8036 3.37799 20.8065 4.21373L23.5514 6.50115C24.8784 7.60701 25.5419 8.15993 25.896 8.91582C26.25 9.67171 26.25 10.5354 26.25 12.2628V16.25C26.25 20.9372 26.25 23.2807 25.0564 24.9237C24.6709 25.4543 24.2042 25.9209 23.6737 26.3064C22.0307 27.5 19.6872 27.5 15 27.5C10.3128 27.5 7.96925 27.5 6.32634 26.3064C5.79575 25.9209 5.32914 25.4543 4.94364 24.9237C3.75 23.2807 3.75 20.9372 3.75 16.25V14.8231Z" stroke="#FF5757" stroke-width="2"/>
</svg>
