<svg width="30" height="30" viewBox="0 0 30 30" fill="none" xmlns="http://www.w3.org/2000/svg">
<path d="M26.6469 8.92674L26.0299 7.85599C25.5633 7.0462 25.3299 6.64131 24.933 6.47985C24.536 6.3184 24.087 6.4458 23.1891 6.7006L21.6638 7.13022C21.0906 7.26242 20.4891 7.18743 19.9657 6.91849L19.5446 6.67552C19.0957 6.38804 18.7505 5.96417 18.5594 5.46593L18.142 4.2192C17.8675 3.39417 17.7302 2.98166 17.4035 2.74571C17.0768 2.50977 16.6428 2.50977 15.7749 2.50977H14.3814C13.5135 2.50977 13.0795 2.50977 12.7528 2.74571C12.4261 2.98166 12.2888 3.39417 12.0144 4.2192L11.5969 5.46593C11.4058 5.96417 11.0606 6.38804 10.6117 6.67552L10.1906 6.91849C9.66717 7.18743 9.06574 7.26242 8.49248 7.13022L6.96718 6.7006C6.06927 6.4458 5.62031 6.3184 5.22334 6.47985C4.82637 6.64131 4.59306 7.0462 4.12644 7.85599L3.50946 8.92674C3.07207 9.6858 2.85338 10.0653 2.89582 10.4694C2.93827 10.8734 3.23104 11.199 3.81658 11.8501L5.10538 13.291C5.42037 13.6898 5.64401 14.3848 5.64401 15.0096C5.64401 15.6348 5.42045 16.3295 5.10541 16.7284L3.81658 18.1693L3.81657 18.1693C3.23104 18.8205 2.93827 19.146 2.89582 19.5501C2.85338 19.9541 3.07208 20.3336 3.50946 21.0927L4.12642 22.1634L4.12643 22.1634C4.59304 22.9732 4.82637 23.3781 5.22334 23.5396C5.62032 23.701 6.06928 23.5736 6.96721 23.3188L8.49242 22.8891C9.06578 22.7569 9.66733 22.832 10.1908 23.101L10.6119 23.344C11.0606 23.6315 11.4058 24.0553 11.5969 24.5535L12.0144 25.8003C12.2888 26.6254 12.4261 27.0379 12.7528 27.2738C13.0795 27.5098 13.5135 27.5098 14.3814 27.5098H15.7749C16.6428 27.5098 17.0768 27.5098 17.4035 27.2738C17.7302 27.0379 17.8675 26.6254 18.142 25.8003L18.5594 24.5535C18.7505 24.0553 19.0957 23.6315 19.5444 23.344L19.9655 23.101C20.489 22.832 21.0905 22.7569 21.6639 22.8891L23.1891 23.3188C24.087 23.5736 24.536 23.701 24.933 23.5396C25.3299 23.3781 25.5633 22.9732 26.0299 22.1634L26.0299 22.1634L26.6469 21.0927C27.0842 20.3336 27.3029 19.9541 27.2605 19.5501C27.218 19.146 26.9253 18.8205 26.3397 18.1693L25.0509 16.7284C24.7359 16.3295 24.5123 15.6348 24.5123 15.0096C24.5123 14.3848 24.7359 13.6898 25.0509 13.291L26.3397 11.8501C26.9253 11.199 27.218 10.8734 27.2605 10.4694C27.3029 10.0653 27.0842 9.6858 26.6469 8.92674Z" stroke="#FF5757" stroke-width="1.5" stroke-linecap="round"/>
<path d="M19.3994 15C19.3994 17.4162 17.4407 19.375 15.0244 19.375C12.6082 19.375 10.6494 17.4162 10.6494 15C10.6494 12.5838 12.6082 10.625 15.0244 10.625C17.4407 10.625 19.3994 12.5838 19.3994 15Z" stroke="#FF5757" stroke-width="1.5"/>
</svg>
