<svg width="30" height="30" viewBox="0 0 30 30" fill="none" xmlns="http://www.w3.org/2000/svg">
<path d="M25.4909 10.0396L23.3072 8.14326C21.7338 6.77692 21.1171 6.0419 20.2651 6.30174C19.2027 6.62574 19.5525 8.67011 19.5525 9.3603C17.9008 9.3603 16.1835 9.23326 14.5554 9.49796C9.18066 10.3718 7.5 14.1958 7.5 18.3157C9.02122 17.3832 10.5409 16.3433 12.3693 15.9111C14.6515 15.3716 17.2004 15.6291 19.5525 15.6291C19.5525 16.3192 19.2027 18.3637 20.2651 18.6876C21.2305 18.982 21.7338 18.2124 23.3072 16.8461L25.4909 14.9498C26.8303 13.7866 27.5 13.205 27.5 12.4947C27.5 11.7844 26.8303 11.2028 25.4909 10.0396Z" stroke="#FF5757" stroke-width="1.5" stroke-linecap="round" stroke-linejoin="round"/>
<path d="M13.2095 3.75C8.38418 3.75867 5.85742 3.87689 4.24263 5.48842C2.5 7.22752 2.5 10.0266 2.5 15.6247C2.5 21.2227 2.5 24.0218 4.24263 25.7609C5.98526 27.5 8.78998 27.5 14.3994 27.5C20.0089 27.5 22.8136 27.5 24.5562 25.7609C25.7695 24.5501 26.138 22.8254 26.25 20" stroke="#FF5757" stroke-width="1.5" stroke-linecap="round" stroke-linejoin="round"/>
</svg>
