<svg width="30" height="31" viewBox="0 0 30 31" fill="none" xmlns="http://www.w3.org/2000/svg">
<path d="M25.6426 15.5C25.6426 21.368 20.8856 26.125 15.0176 26.125C9.14955 26.125 4.39258 21.368 4.39258 15.5C4.39258 9.63197 9.14955 4.875 15.0176 4.875C20.8856 4.875 25.6426 9.63197 25.6426 15.5Z" stroke="#FF5757" stroke-width="1.5"/>
<path d="M28.125 15.5H25.625" stroke="#FF5757" stroke-width="1.5" stroke-linecap="round" stroke-linejoin="round"/>
<path d="M4.375 15.5H1.875" stroke="#FF5757" stroke-width="1.5" stroke-linecap="round" stroke-linejoin="round"/>
<path d="M15 2.375L15 4.875" stroke="#FF5757" stroke-width="1.5" stroke-linecap="round" stroke-linejoin="round"/>
<path d="M15 26.125V28.625" stroke="#FF5757" stroke-width="1.5" stroke-linecap="round" stroke-linejoin="round"/>
<path d="M18.7499 15.5C18.7499 17.5711 17.071 19.25 14.9999 19.25C12.9289 19.25 11.2499 17.5711 11.2499 15.5C11.2499 13.4289 12.9289 11.75 14.9999 11.75C17.071 11.75 18.7499 13.4289 18.7499 15.5Z" stroke="#FF5757" stroke-width="1.5"/>
</svg>
