<svg width="25" height="26" viewBox="0 0 25 26" fill="none" xmlns="http://www.w3.org/2000/svg">
<path d="M21.8287 12.5C21.8287 11.6213 20.9351 10.9064 19.8367 10.9064H13.3531C13.2562 10.8671 13.1596 10.8281 13.0646 10.7898L13.0647 10.7898C10.6286 9.80685 9.6364 9.30466 9.6364 8.28036C9.6364 6.83438 11.1069 5.65801 12.9143 5.65801C14.7218 5.65801 16.1922 6.83438 16.1922 8.28036C16.1922 9.15104 17.0776 9.85936 18.166 9.85936C19.2543 9.85936 20.1397 9.15104 20.1397 8.28036C20.1397 5.09307 16.8984 2.5 12.9143 2.5C8.93028 2.5 5.68899 5.09307 5.68899 8.28036C5.68899 9.25335 6.02395 10.1332 6.68591 10.9064H5.99203C4.89363 10.9064 4 11.6213 4 12.5C4 13.3787 4.89363 14.0936 5.99203 14.0936H12.5045L12.5266 14.1021L12.5268 14.1022C15.8154 15.3591 16.1923 15.6282 16.1923 16.7197C16.1923 18.1657 14.7218 19.342 12.9143 19.342C11.1069 19.342 9.63645 18.1657 9.63645 16.7197C9.63645 15.849 8.75105 15.1407 7.6627 15.1407C6.57435 15.1407 5.68894 15.849 5.68894 16.7197C5.68894 19.907 8.93023 22.5 12.9143 22.5C16.8985 22.5 20.1397 19.907 20.1397 16.7197C20.1397 15.698 19.8533 14.8316 19.2687 14.0936H19.8367C20.9351 14.0936 21.8287 13.3787 21.8287 12.5ZM6.68496 8.28036C6.68496 5.53239 9.47943 3.29681 12.9143 3.29681C16.3493 3.29681 19.1437 5.53239 19.1437 8.28036C19.1437 8.71163 18.7051 9.06255 18.166 9.06255C17.6268 9.06255 17.1882 8.71163 17.1882 8.28036C17.1882 6.39502 15.271 4.8612 12.9143 4.8612C10.5577 4.8612 8.64039 6.39502 8.64039 8.28036C8.64039 9.52956 9.6879 10.2362 11.1889 10.9064H7.95319C7.11145 10.1628 6.68496 9.2802 6.68496 8.28036ZM12.9143 21.7032C9.47948 21.7032 6.68501 19.4676 6.68501 16.7197C6.68501 16.2884 7.12361 15.9375 7.66275 15.9375C8.20189 15.9375 8.64049 16.2884 8.64049 16.7197C8.64049 18.605 10.5578 20.1388 12.9144 20.1388C15.2711 20.1388 17.1883 18.605 17.1883 16.7197C17.1883 15.4341 16.5639 14.8692 14.7469 14.0936H18.0306C18.7891 14.7935 19.1437 15.6329 19.1437 16.7197C19.1437 19.4676 16.3492 21.7032 12.9143 21.7032ZM5.99203 13.2968C5.44283 13.2968 4.99602 12.9394 4.99602 12.5C4.99602 12.0606 5.44283 11.7032 5.99203 11.7032H19.8367C20.3859 11.7032 20.8327 12.0606 20.8327 12.5C20.8327 12.9394 20.3859 13.2968 19.8367 13.2968H5.99203Z" fill="white"/>
<path d="M7.23717 11.9819H6.04195C5.7669 11.9819 5.54395 12.1603 5.54395 12.3803C5.54395 12.6003 5.7669 12.7787 6.04195 12.7787H7.23717C7.51222 12.7787 7.73518 12.6003 7.73518 12.3803C7.73518 12.1603 7.51222 11.9819 7.23717 11.9819Z" fill="white"/>
<path d="M15.0053 11.9819H8.83004C8.55499 11.9819 8.33203 12.1603 8.33203 12.3803C8.33203 12.6003 8.55499 12.7787 8.83004 12.7787H15.0053C15.2804 12.7787 15.5033 12.6003 15.5033 12.3803C15.5033 12.1603 15.2804 11.9819 15.0053 11.9819Z" fill="white"/>
</svg>
