<svg width="31" height="27" viewBox="0 0 31 27" fill="none" xmlns="http://www.w3.org/2000/svg">
<path d="M0.916992 12.7709C0.916992 14.3817 2.22283 15.6876 3.83366 15.6876C6.2499 15.6876 8.20866 13.7288 8.20866 11.3126V5.47925C8.20866 3.063 6.2499 1.10425 3.83366 1.10425C2.22283 1.10425 0.916992 2.41008 0.916992 4.02092V12.7709Z" stroke="#DB1E1E" stroke-linecap="round" stroke-linejoin="round"/>
<path d="M20.5738 19.6161L20.1855 18.3618C19.8672 17.334 19.7081 16.8202 19.8305 16.4143C19.9295 16.0859 20.1468 15.8029 20.4429 15.6167C20.809 15.3865 21.3627 15.3865 22.4702 15.3865H23.0594C26.8074 15.3865 28.6814 15.3865 29.5665 14.2771C29.6677 14.1503 29.7576 14.0155 29.8355 13.8741C30.5164 12.6367 29.7423 10.9698 28.194 7.63613C26.7731 4.57687 26.0627 3.04724 24.7436 2.14689C24.6159 2.05973 24.4847 1.97752 24.3502 1.90045C22.9615 1.10441 21.2409 1.10441 17.7996 1.10441H17.0532C12.884 1.10441 10.7994 1.10441 9.50419 2.35935C8.20898 3.61429 8.20898 5.63409 8.20898 9.67368V11.0935C8.20898 13.2164 8.20898 14.2779 8.58573 15.2494C8.96248 16.2209 9.68387 17.0197 11.1267 18.6174L17.0933 25.2244C17.243 25.3901 17.3178 25.473 17.3838 25.5304C17.9996 26.0663 18.9499 26.006 19.4883 25.3968C19.546 25.3316 19.609 25.24 19.7351 25.0568C19.9323 24.7702 20.0309 24.6269 20.1168 24.4849C20.886 23.214 21.1188 21.7043 20.7664 20.2711C20.727 20.111 20.6759 19.9459 20.5738 19.6161Z" stroke="#DB1E1E" stroke-linecap="round" stroke-linejoin="round"/>
</svg>
