<svg width="31" height="27" viewBox="0 0 31 27" fill="none" xmlns="http://www.w3.org/2000/svg">
<path d="M1 14.2292C1 12.6183 2.30584 11.3125 3.91667 11.3125C6.33291 11.3125 8.29167 13.2713 8.29167 15.6875V21.5208C8.29167 23.9371 6.33291 25.8958 3.91667 25.8958C2.30584 25.8958 1 24.59 1 22.9792V14.2292Z" fill="#81F24C"/>
<path d="M20.0595 8.53425L20.4478 7.27996C20.55 6.95014 20.6011 6.78509 20.6404 6.62501C20.9928 5.19178 20.7601 3.68206 19.9908 2.41116C19.9049 2.26919 19.8063 2.1259 19.6091 1.83932C19.4831 1.65612 19.42 1.56451 19.3623 1.49926C18.824 0.890105 17.8736 0.829784 17.2578 1.36568C17.1918 1.42309 17.117 1.50595 16.9673 1.67165L11.0007 8.27871C9.5579 9.87636 8.8365 10.6752 8.45975 11.6467C8.08301 12.6182 8.08301 13.6797 8.08301 15.8026V17.2224C8.08301 21.262 8.08301 23.2818 9.37821 24.5367C10.6734 25.7917 12.758 25.7917 16.9272 25.7917H17.6736C21.1149 25.7917 22.8356 25.7917 24.2243 24.9956C24.3587 24.9186 24.4899 24.8363 24.6176 24.7492C25.9367 23.8488 26.6471 22.3192 28.068 19.2599C29.6163 15.9262 30.3904 14.2594 29.7095 13.022C29.6317 12.8806 29.5417 12.7458 29.4405 12.619C28.5554 11.5095 26.6814 11.5095 22.9334 11.5095H22.3442C21.2368 11.5095 20.683 11.5095 20.317 11.2794C20.0208 11.0932 19.8035 10.8101 19.7045 10.4818C19.5821 10.0759 19.7413 9.56203 20.0595 8.53425Z" fill="#81F24C"/>
<path d="M1 14.2292C1 12.6183 2.30584 11.3125 3.91667 11.3125C6.33291 11.3125 8.29167 13.2713 8.29167 15.6875V21.5208C8.29167 23.9371 6.33291 25.8958 3.91667 25.8958C2.30584 25.8958 1 24.59 1 22.9792V14.2292Z" stroke="#81F24C" stroke-linecap="round" stroke-linejoin="round"/>
<path d="M20.0595 8.53425L20.4478 7.27996C20.55 6.95014 20.6011 6.78509 20.6404 6.62501C20.9928 5.19178 20.7601 3.68206 19.9908 2.41116C19.9049 2.26919 19.8063 2.1259 19.6091 1.83932C19.4831 1.65612 19.42 1.56451 19.3623 1.49926C18.824 0.890105 17.8736 0.829784 17.2578 1.36568C17.1918 1.42309 17.117 1.50595 16.9673 1.67165L11.0007 8.27871C9.5579 9.87636 8.8365 10.6752 8.45975 11.6467C8.08301 12.6182 8.08301 13.6797 8.08301 15.8026V17.2224C8.08301 21.262 8.08301 23.2818 9.37821 24.5367C10.6734 25.7917 12.758 25.7917 16.9272 25.7917H17.6736C21.1149 25.7917 22.8356 25.7917 24.2243 24.9956C24.3587 24.9186 24.4899 24.8363 24.6176 24.7492C25.9367 23.8488 26.6471 22.3192 28.068 19.2599C29.6163 15.9262 30.3904 14.2594 29.7095 13.022C29.6317 12.8806 29.5417 12.7458 29.4405 12.619C28.5554 11.5095 26.6814 11.5095 22.9334 11.5095H22.3442C21.2368 11.5095 20.683 11.5095 20.317 11.2794C20.0208 11.0932 19.8035 10.8101 19.7045 10.4818C19.5821 10.0759 19.7413 9.56203 20.0595 8.53425Z" stroke="#81F24C" stroke-linecap="round" stroke-linejoin="round"/>
</svg>
