<svg width="21" height="21" viewBox="0 0 21 21" fill="none" xmlns="http://www.w3.org/2000/svg">
<path fill-rule="evenodd" clip-rule="evenodd" d="M12.5998 4.9877C12.5998 4.55277 12.9524 4.2002 13.3873 4.2002H19.1623C19.5972 4.2002 19.9498 4.55277 19.9498 4.9877V10.7627C19.9498 11.1976 19.5972 11.5502 19.1623 11.5502C18.7274 11.5502 18.3748 11.1976 18.3748 10.7627V6.88889L11.8442 13.4195C11.5671 13.6967 11.1283 13.7278 10.8148 13.4927L7.21335 10.7916L2.4423 16.5168C2.16387 16.851 1.6673 16.8961 1.33318 16.6177C0.999061 16.3392 0.953918 15.8427 1.23235 15.5086L6.48235 9.20855C6.75075 8.88647 7.22442 8.83115 7.55982 9.0827L11.2134 11.8229L17.2611 5.7752H13.3873C12.9524 5.7752 12.5998 5.42262 12.5998 4.9877Z" fill="#FF5757"/>
</svg>
