<svg width="30" height="30" viewBox="0 0 30 30" fill="none" xmlns="http://www.w3.org/2000/svg">
<path d="M23.1306 23.75H23.6821C24.9757 23.75 26.0046 23.1606 26.9284 22.3365C29.2753 20.2428 23.7584 18.1248 21.875 18.1248" stroke="#FF5757" stroke-width="1.5" stroke-linecap="round" stroke-linejoin="round"/>
<path d="M18.75 6.33596C19.0338 6.27966 19.3286 6.25 19.6309 6.25C21.9058 6.25 23.75 7.92893 23.75 10C23.75 12.0711 21.9058 13.75 19.6309 13.75C19.3286 13.75 19.0338 13.7203 18.75 13.664" stroke="#FF5757" stroke-width="1.5" stroke-linecap="round"/>
<path d="M5.9782 18.889C4.60273 19.6787 0.996327 21.2914 3.19287 23.3093C4.26586 24.295 5.46089 25 6.96334 25H15.5367C17.0391 25 18.2341 24.295 19.3071 23.3093C21.5037 21.2914 17.8973 19.6787 16.5218 18.889C13.2963 17.037 9.20365 17.037 5.9782 18.889Z" stroke="#FF5757" stroke-width="1.5" stroke-linecap="round" stroke-linejoin="round"/>
<path d="M16.25 8.75C16.25 11.5114 14.0114 13.75 11.25 13.75C8.48858 13.75 6.25 11.5114 6.25 8.75C6.25 5.98858 8.48858 3.75 11.25 3.75C14.0114 3.75 16.25 5.98858 16.25 8.75Z" stroke="#FF5757" stroke-width="1.5"/>
</svg>
