<svg width="20" height="18" viewBox="0 0 20 18" fill="none" xmlns="http://www.w3.org/2000/svg">
<path d="M0.954163 1.64193L2.11413 0.5L18.2226 16.3581L17.0627 17.5C16.913 17.3527 16.464 16.929 15.7156 16.1923C14.9673 15.474 14.3873 14.903 13.9944 14.5162C12.7783 15.032 11.45 15.2898 10.0281 15.2898C7.78297 15.2898 5.74369 14.682 3.92891 13.448C2.11412 12.214 0.80449 10.5932 0 8.58559C0.318054 7.83044 0.80449 7.03846 1.47802 6.15439C2.15154 5.27031 2.78765 4.58884 3.42376 4.12839C3.087 3.77844 2.60056 3.29957 1.98316 2.69177C1.38447 2.08397 1.029 1.73402 0.954163 1.64193ZM5.96819 6.59643C5.63143 7.25948 5.46305 7.92253 5.46305 8.56717C5.46305 9.80119 5.91207 10.851 6.8101 11.7351C7.70814 12.6192 8.77456 13.0612 10.0281 13.0612C10.6829 13.0612 11.3564 12.8954 12.0299 12.5639L10.6268 11.1826C10.4022 11.2194 10.1964 11.2562 10.0281 11.2562C9.2797 11.2562 8.64359 10.9984 8.10103 10.4642C7.57718 9.93012 7.29654 9.3039 7.29654 8.56717C7.29654 8.40141 7.33396 8.19881 7.39008 7.97779L5.96819 6.59643ZM10.0281 4.07313C9.46679 4.07313 8.90552 4.18364 8.36296 4.40466L6.3985 2.48917C7.52105 2.06555 8.71843 1.84453 10.0281 1.84453C12.2732 1.84453 14.2937 2.45233 16.1085 3.68635C17.9046 4.92037 19.2142 6.54117 20 8.54875C19.3078 10.2064 18.2788 11.6062 16.8943 12.7849L14.2563 10.188C14.4808 9.65385 14.5931 9.11972 14.5931 8.54875C14.5931 7.31473 14.1441 6.2649 13.246 5.38082C12.348 4.49675 11.2816 4.07313 10.0281 4.07313ZM9.8971 5.87811H10.0281C10.7577 5.87811 11.4125 6.13597 11.9551 6.6701C12.479 7.20423 12.7596 7.83044 12.7596 8.56717V8.73294L9.8971 5.87811Z" fill="white"/>
</svg>
