<svg width="136" height="136" viewBox="0 0 136 136" fill="none" xmlns="http://www.w3.org/2000/svg">
<path fill-rule="evenodd" clip-rule="evenodd" d="M60.5 136C93.9132 136 121 108.913 121 75.5C121 68.0591 119.657 60.9319 117.199 54.3477C117.123 54.5552 116.768 55.1643 115.126 56.3583C114.486 56.8234 114.087 57.1078 113.806 57.308C113.483 57.5375 113.316 57.6564 113.121 57.8101C114.988 63.3661 116 69.3149 116 75.5C116 106.152 91.1518 131 60.5 131C29.8482 131 5 106.152 5 75.5C5 44.8482 29.8482 20 60.5 20C73.2743 20 85.0405 24.3157 94.4203 31.5687C93.7677 30.3653 92.581 29.3011 91.3198 28.17C90.4097 27.3537 89.4607 26.5026 88.6457 25.5394C87.1897 23.8187 87.0219 21.5896 87.0025 21.0985C78.999 17.1922 70.0055 15 60.5 15C27.0868 15 0 42.0868 0 75.5C0 108.913 27.0868 136 60.5 136Z" fill="#FF5757"/>
<path fill-rule="evenodd" clip-rule="evenodd" d="M110.756 57.7002C112.854 63.4039 114 69.5682 114 76C114 105.271 90.2711 129 61 129C31.7289 129 8 105.271 8 76C8 46.7289 31.7289 23 61 23C75.9178 23 89.3961 29.1633 99.0275 39.0823C98.9787 38.0461 98.615 35.5788 96.4839 32.4381C94.4857 29.4935 92.2982 27.2062 90.8034 25.7113C90.6789 25.5869 90.5493 25.4634 90.4177 25.3382C88.9694 23.9593 87.2904 22.3608 89.757 16.7423C92.4478 10.6134 107.546 0 107.546 0L105.154 12.4072L115.02 14.201C115.02 14.201 105.752 15.5464 102.463 20.3299C99.3016 24.9286 101.566 29.8035 102.108 30.9703C102.13 31.0172 102.148 31.0581 102.164 31.0928C103.248 33.4776 104.152 35.0859 105.834 38.0806C106.367 39.0279 106.977 40.114 107.695 41.4072C110.321 46.1337 107.873 49.3611 107.238 50.0767C107.267 50.1274 107.295 50.1782 107.324 50.229C107.977 50.2165 109.954 50.0482 112.03 48.5825C114.571 46.7887 115.572 43.6721 115.767 40.0619C115.914 37.3581 115.798 35.8531 115.699 34.5747C115.596 33.2379 115.513 32.1488 115.767 30.1959C116.664 23.3196 124.438 17.3402 124.438 17.3402C124.438 17.3402 124.056 21.2676 123.69 23.768C123.347 26.1136 122.345 30.0464 122.345 30.0464C122.345 30.0464 126.378 26.448 130.865 25.4124C132.809 24.9639 135.2 25.4124 135.2 25.4124C135.2 25.4124 133.556 26.6082 130.566 30.1959C126.829 34.6804 123.906 39.0155 121.597 44.2474C120.448 46.852 119.748 48.2194 118.309 50.6753C116.24 54.2038 112.191 56.8411 110.756 57.7002Z" fill="#FF5757"/>
<path d="M46.2108 98.0655C43.1616 96.3231 42 94 42 94C44.3232 95.5971 44.6136 95.9241 47.082 97.0491C50.6521 98.6763 55.0974 98.8544 58.8432 97.2921C61.1664 96.3231 61.1664 96.3231 63.4896 95.0164C63.4896 95.0164 62.328 96.6135 59.1336 98.356C54.5129 100.876 50.7829 100.678 46.2108 98.0655Z" fill="#263749"/>
<ellipse cx="38.9882" cy="84.0118" rx="4.98823" ry="4.98823" fill="#263749"/>
<ellipse cx="70.4287" cy="81.8952" rx="5.89518" ry="5.89518" fill="#263749"/>
<path fill-rule="evenodd" clip-rule="evenodd" d="M35.7073 98.8869C27.6144 106.408 23.1183 100.547 20.7204 96.4801C16.3742 89.1093 14.276 70.7576 17.723 62.6347C21.17 54.5118 28.064 57.8212 30.6118 59.7767C31.2516 60.2677 31.8189 60.71 32.3481 61.1225C34.3806 62.7068 35.8509 63.853 38.7047 65.6432C45.2767 69.7659 46.8345 69.1571 51.0874 67.4952L51.0877 67.4951C51.2521 67.4309 51.4206 67.365 51.5935 67.2979C56.2205 65.5001 69.8775 56.708 76.4718 52.4059C86.9527 45.5681 94.3062 49.8487 98.3527 57.9716C104.9 71.1156 103.898 85.4992 99.2519 94.8255C93.5568 106.258 84.5647 103.099 78.8697 100.692C74.9585 99.0391 71.1401 96.7774 67.4919 94.6165L67.4919 94.6165C60.9466 90.7396 54.949 87.1871 49.9449 88.0564C44.3378 89.0304 41.8847 91.9272 39.1828 95.1177L39.1827 95.1177C38.1293 96.3616 37.0381 97.6502 35.7073 98.8869ZM41.4038 73.0159C38.856 69.4057 30.3134 65.0434 25.2178 73.0159C25.2178 73.0159 27.9155 71.3612 30.6132 72.2638C30.6132 72.2638 28.3324 74.0124 27.4659 75.5731C25.7956 78.5816 25.7846 82.9377 28.515 85.9524C31.5124 89.2617 35.1093 90.3821 39.1558 89.2617C41.8723 88.5096 43.7562 85.5262 43.9516 82.1918C44.1014 79.6346 43.8662 76.5051 41.4038 73.0159ZM87.5625 69.1015C82.4669 61.1291 74.0743 61.7307 68.679 68.0485C66.4309 70.681 64.7824 73.6143 64.7824 79.3304C64.7824 83.9935 67.2516 86.8697 70.0278 87.9046C75.2732 89.8601 80.7698 87.666 83.5161 84.1439C86.2137 80.6842 86.3853 75.1185 84.715 72.11C83.8485 70.5493 81.1181 67.8982 81.1181 67.8982C83.8158 66.9956 87.5625 69.1015 87.5625 69.1015Z" fill="#263749"/>
</svg>
